  0
SECTION
  2
HEADER
  9
$ACADVER
  1
AC1018
  9
$ACADMAINTVER
 70
    39
  9
$DWGCODEPAGE
  3
ANSI_1252
  9
$INSBASE
 10
0.0
 20
0.0
 30
0.0
  9
$EXTMIN
 10
-1.000000009999999
 20
-1.000000009999999
 30
-0.00000001
  9
$EXTMAX
 10
1.000000009999999
 20
1.000000009999999
 30
0.00000001
  9
$LIMMIN
 10
-0.579142470018915
 20
-0.7528282648623457
  9
$LIMMAX
 10
0.5830148090514898
 20
0.7510059876705457
  9
$ORTHOMODE
 70
     0
  9
$REGENMODE
 70
     1
  9
$FILLMODE
 70
     1
  9
$QTEXTMODE
 70
     0
  9
$MIRRTEXT
 70
     0
  9
$LTSCALE
 40
1.0
  9
$ATTMODE
 70
     1
  9
$TEXTSIZE
 40
0.0010761479479133
  9
$TRACEWID
 40
0.05
  9
$TEXTSTYLE
  7
Standard
  9
$CLAYER
  8
0
  9
$CELTYPE
  6
ByLayer
  9
$CECOLOR
 62
   256
  9
$CELTSCALE
 40
1.0
  9
$DISPSILH
 70
     0
  9
$DIMSCALE
 40
1.0
  9
$DIMASZ
 40
0.18
  9
$DIMEXO
 40
0.0625
  9
$DIMDLI
 40
0.38
  9
$DIMRND
 40
0.0
  9
$DIMDLE
 40
0.0
  9
$DIMEXE
 40
0.18
  9
$DIMTP
 40
0.0
  9
$DIMTM
 40
0.0
  9
$DIMTXT
 40
0.0170838486731243
  9
$DIMCEN
 40
0.09
  9
$DIMTSZ
 40
0.0
  9
$DIMTOL
 70
     0
  9
$DIMLIM
 70
     0
  9
$DIMTIH
 70
     1
  9
$DIMTOH
 70
     1
  9
$DIMSE1
 70
     0
  9
$DIMSE2
 70
     0
  9
$DIMTAD
 70
     0
  9
$DIMZIN
 70
     0
  9
$DIMBLK
  1

  9
$DIMASO
 70
     1
  9
$DIMSHO
 70
     1
  9
$DIMPOST
  1

  9
$DIMAPOST
  1

  9
$DIMALT
 70
     0
  9
$DIMALTD
 70
     2
  9
$DIMALTF
 40
25.4
  9
$DIMLFAC
 40
1.0
  9
$DIMTOFL
 70
     0
  9
$DIMTVP
 40
0.0
  9
$DIMTIX
 70
     0
  9
$DIMSOXD
 70
     0
  9
$DIMSAH
 70
     0
  9
$DIMBLK1
  1

  9
$DIMBLK2
  1

  9
$DIMSTYLE
  2
Standard
  9
$DIMCLRD
 70
     0
  9
$DIMCLRE
 70
     0
  9
$DIMCLRT
 70
     0
  9
$DIMTFAC
 40
1.0
  9
$DIMGAP
 40
0.09
  9
$DIMJUST
 70
     0
  9
$DIMSD1
 70
     0
  9
$DIMSD2
 70
     0
  9
$DIMTOLJ
 70
     1
  9
$DIMTZIN
 70
     0
  9
$DIMALTZ
 70
     0
  9
$DIMALTTZ
 70
     0
  9
$DIMUPT
 70
     0
  9
$DIMDEC
 70
     4
  9
$DIMTDEC
 70
     4
  9
$DIMALTU
 70
     2
  9
$DIMALTTD
 70
     2
  9
$DIMTXSTY
  7
Standard
  9
$DIMAUNIT
 70
     1
  9
$DIMADEC
 70
     0
  9
$DIMALTRND
 40
0.0
  9
$DIMAZIN
 70
     0
  9
$DIMDSEP
 70
    46
  9
$DIMATFIT
 70
     3
  9
$DIMFRAC
 70
     0
  9
$DIMLDRBLK
  1

  9
$DIMLUNIT
 70
     4
  9
$DIMLWD
 70
    -2
  9
$DIMLWE
 70
    -2
  9
$DIMTMOVE
 70
     0
  9
$LUNITS
 70
     2
  9
$LUPREC
 70
     4
  9
$SKETCHINC
 40
0.1
  9
$FILLETRAD
 40
0.5
  9
$AUNITS
 70
     0
  9
$AUPREC
 70
     0
  9
$MENU
  1
.
  9
$ELEVATION
 40
0.0
  9
$PELEVATION
 40
0.0
  9
$THICKNESS
 40
0.0
  9
$LIMCHECK
 70
     0
  9
$CHAMFERA
 40
0.25
  9
$CHAMFERB
 40
0.25
  9
$CHAMFERC
 40
0.0
  9
$CHAMFERD
 40
0.0
  9
$SKPOLY
 70
     0
  9
$TDCREATE
 40
2456048.793075949
  9
$TDUCREATE
 40
2456049.084742616
  9
$TDUPDATE
 40
2456048.793075949
  9
$TDUUPDATE
 40
2456049.084742616
  9
$TDINDWG
 40
0.0000001852
  9
$TDUSRTIMER
 40
0.0000001852
  9
$USRTIMER
 70
     1
  9
$ANGBASE
 50
0.0
  9
$ANGDIR
 70
     0
  9
$PDMODE
 70
     0
  9
$PDSIZE
 40
0.0
  9
$PLINEWID
 40
0.0
  9
$SPLFRAME
 70
     0
  9
$SPLINETYPE
 70
     6
  9
$SPLINESEGS
 70
     8
  9
$HANDSEED
  5
235
  9
$SURFTAB1
 70
     6
  9
$SURFTAB2
 70
     6
  9
$SURFTYPE
 70
     6
  9
$SURFU
 70
     6
  9
$SURFV
 70
     6
  9
$UCSBASE
  2

  9
$UCSNAME
  2

  9
$UCSORG
 10
0.0
 20
0.0
 30
0.0
  9
$UCSXDIR
 10
1.0
 20
0.0
 30
0.0
  9
$UCSYDIR
 10
0.0
 20
1.0
 30
0.0
  9
$UCSORTHOREF
  2

  9
$UCSORTHOVIEW
 70
     0
  9
$UCSORGTOP
 10
0.0
 20
0.0
 30
0.0
  9
$UCSORGBOTTOM
 10
0.0
 20
0.0
 30
0.0
  9
$UCSORGLEFT
 10
0.0
 20
0.0
 30
0.0
  9
$UCSORGRIGHT
 10
0.0
 20
0.0
 30
0.0
  9
$UCSORGFRONT
 10
0.0
 20
0.0
 30
0.0
  9
$UCSORGBACK
 10
0.0
 20
0.0
 30
0.0
  9
$PUCSBASE
  2

  9
$PUCSNAME
  2

  9
$PUCSORG
 10
0.0
 20
0.0
 30
0.0
  9
$PUCSXDIR
 10
1.0
 20
0.0
 30
0.0
  9
$PUCSYDIR
 10
0.0
 20
1.0
 30
0.0
  9
$PUCSORTHOREF
  2

  9
$PUCSORTHOVIEW
 70
     0
  9
$PUCSORGTOP
 10
0.0
 20
0.0
 30
0.0
  9
$PUCSORGBOTTOM
 10
0.0
 20
0.0
 30
0.0
  9
$PUCSORGLEFT
 10
0.0
 20
0.0
 30
0.0
  9
$PUCSORGRIGHT
 10
0.0
 20
0.0
 30
0.0
  9
$PUCSORGFRONT
 10
0.0
 20
0.0
 30
0.0
  9
$PUCSORGBACK
 10
0.0
 20
0.0
 30
0.0
  9
$USERI1
 70
     0
  9
$USERI2
 70
     0
  9
$USERI3
 70
     0
  9
$USERI4
 70
     0
  9
$USERI5
 70
     0
  9
$USERR1
 40
0.0
  9
$USERR2
 40
0.0
  9
$USERR3
 40
0.0
  9
$USERR4
 40
0.0
  9
$USERR5
 40
0.0
  9
$WORLDVIEW
 70
     1
  9
$SHADEDGE
 70
     3
  9
$SHADEDIF
 70
    70
  9
$TILEMODE
 70
     1
  9
$MAXACTVP
 70
    64
  9
$PINSBASE
 10
0.0
 20
0.0
 30
0.0
  9
$PLIMCHECK
 70
     0
  9
$PEXTMIN
 10
1.000000000000000E+20
 20
1.000000000000000E+20
 30
1.000000000000000E+20
  9
$PEXTMAX
 10
-1.000000000000000E+20
 20
-1.000000000000000E+20
 30
-1.000000000000000E+20
  9
$PLIMMIN
 10
0.0
 20
0.0
  9
$PLIMMAX
 10
12.0
 20
9.0
  9
$UNITMODE
 70
     0
  9
$VISRETAIN
 70
     1
  9
$PLINEGEN
 70
     0
  9
$PSLTSCALE
 70
     1
  9
$TREEDEPTH
 70
  3020
  9
$CMLSTYLE
  2
Standard
  9
$CMLJUST
 70
     0
  9
$CMLSCALE
 40
1.0
  9
$PROXYGRAPHICS
 70
     1
  9
$MEASUREMENT
 70
     0
  9
$CELWEIGHT
370
    -1
  9
$ENDCAPS
280
     0
  9
$JOINSTYLE
280
     0
  9
$LWDISPLAY
290
     0
  9
$INSUNITS
 70
     0
  9
$HYPERLINKBASE
  1

  9
$STYLESHEET
  1

  9
$XEDIT
290
     1
  9
$CEPSNTYPE
380
     0
  9
$PSTYLEMODE
290
     1
  9
$FINGERPRINTGUID
  2
{4E6BDE4F-1616-49E1-BF96-057CBA64FA20}
  9
$VERSIONGUID
  2
{12F37DEC-0D12-4842-B21A-CC07BF1D35AF}
  9
$EXTNAMES
290
     1
  9
$PSVPSCALE
 40
0.0
  9
$OLESTARTUP
290
     0
  9
$SORTENTS
280
   127
  9
$INDEXCTL
280
     0
  9
$HIDETEXT
280
     1
  9
$XCLIPFRAME
290
     0
  9
$HALOGAP
280
     0
  9
$OBSCOLOR
 70
   257
  9
$OBSLTYPE
280
     0
  9
$INTERSECTIONDISPLAY
280
     0
  9
$INTERSECTIONCOLOR
 70
   257
  9
$DIMASSOC
280
     2
  9
$PROJECTNAME
  1

  0
ENDSEC
  0
SECTION
  2
CLASSES
  0
CLASS
  1
ACDBDICTIONARYWDFLT
  2
AcDbDictionaryWithDefault
  3
ObjectDBX Classes
 90
        0
 91
        1
280
     0
281
     0
  0
ENDSEC
  0
SECTION
  2
TABLES
  0
TABLE
  2
VPORT
  5
8
330
0
100
AcDbSymbolTable
 70
     1
  0
VPORT
  5
13
330
8
100
AcDbSymbolTableRecord
100
AcDbViewportTableRecord
  2
*Active
 70
     0
 10
0.0
 20
0.0
 11
1.0
 21
1.0
 12
-0.500000005
 22
-0.500000005
 13
0.0
 23
0.0
 14
1.0
 24
1.0
 15
0.0
 25
0.0
 16
0.0
 26
0.0
 36
1.0
 17
0.0
 27
0.0
 37
0.0
 40
1.000000009999999
 41
1.0
 42
50.0
 43
0.0
 44
0.0
 50
0.0
 51
0.0
 71
     0
 72
   100
 73
     1
 74
     1
 75
     0
 76
     0
 77
     0
 78
     0
281
     0
 65
     1
110
0.0
120
0.0
130
0.0
111
1.0
121
0.0
131
0.0
112
0.0
122
1.0
132
0.0
 79
     0
146
0.0
  0
ENDTAB
  0
TABLE
  2
LTYPE
  5
5
330
0
100
AcDbSymbolTable
 70
    40
  0
LTYPE
  5
14
330
5
100
AcDbSymbolTableRecord
100
AcDbLinetypeTableRecord
  2
ByBlock
 70
     0
  3

 72
    65
 73
     0
 40
0.0
  0
LTYPE
  5
15
330
5
100
AcDbSymbolTableRecord
100
AcDbLinetypeTableRecord
  2
ByLayer
 70
     0
  3

 72
    65
 73
     0
 40
0.0
  0
LTYPE
  5
16
330
5
100
AcDbSymbolTableRecord
100
AcDbLinetypeTableRecord
  2
Continuous
 70
     0
  3
Solid line
 72
    65
 73
     0
 40
0.0
  0
LTYPE
  5
2A
330
5
100
AcDbSymbolTableRecord
100
AcDbLinetypeTableRecord
  2
HIDDEN
 70
     0
  3
_ _ _ _ _ _ _ _ _ _ _ _ _ _ 
 72
    65
 73
     2
 40
0.375
 49
0.25
 74
     0
 49
-0.125
 74
     0
  0
LTYPE
  5
2B
330
5
100
AcDbSymbolTableRecord
100
AcDbLinetypeTableRecord
  2
DASHED
 70
     0
  3
__ __ __ __ __ __ __ __ __ 
 72
    65
 73
     2
 40
0.75
 49
0.5
 74
     0
 49
-0.25
 74
     0
  0
LTYPE
  5
2C
330
5
100
AcDbSymbolTableRecord
100
AcDbLinetypeTableRecord
  2
CENTER
 70
     0
  3
____ _ ____ _ ____ _ ____ _ 
 72
    65
 73
     4
 40
2.0
 49
1.25
 74
     0
 49
-0.25
 74
     0
 49
0.25
 74
     0
 49
-0.25
 74
     0
  0
LTYPE
  5
2D
330
5
100
AcDbSymbolTableRecord
100
AcDbLinetypeTableRecord
  2
PHANTOM
 70
     0
  3
_____ _ _ _____ _ _ _____ _ _ 
 72
    65
 73
     6
 40
2.5
 49
1.25
 74
     0
 49
-0.25
 74
     0
 49
0.25
 74
     0
 49
-0.25
 74
     0
 49
0.25
 74
     0
 49
-0.25
 74
     0
  0
LTYPE
  5
2E
330
5
100
AcDbSymbolTableRecord
100
AcDbLinetypeTableRecord
  2
DOT
 70
     0
  3
...........................
 72
    65
 73
     2
 40
0.25
 49
0.0
 74
     0
 49
-0.25
 74
     0
  0
LTYPE
  5
2F
330
5
100
AcDbSymbolTableRecord
100
AcDbLinetypeTableRecord
  2
DASHDOT
 70
     0
  3
__ . __ . __ . __ . __ . __ . 
 72
    65
 73
     4
 40
1.0
 49
0.5
 74
     0
 49
-0.25
 74
     0
 49
0.0
 74
     0
 49
-0.25
 74
     0
  0
LTYPE
  5
30
330
5
100
AcDbSymbolTableRecord
100
AcDbLinetypeTableRecord
  2
DIVIDE
 70
     0
  3
__ . . __ . . __ . . __ . . 
 72
    65
 73
     6
 40
1.25
 49
0.5
 74
     0
 49
-0.25
 74
     0
 49
0.0
 74
     0
 49
-0.25
 74
     0
 49
0.0
 74
     0
 49
-0.25
 74
     0
  0
LTYPE
  5
31
330
5
100
AcDbSymbolTableRecord
100
AcDbLinetypeTableRecord
  2
BORDER
 70
     0
  3
__ __ . __ __ . __ __ . __ __ .
 72
    65
 73
     6
 40
1.75
 49
0.5
 74
     0
 49
-0.25
 74
     0
 49
0.5
 74
     0
 49
-0.25
 74
     0
 49
0.0
 74
     0
 49
-0.25
 74
     0
  0
LTYPE
  5
32
330
5
100
AcDbSymbolTableRecord
100
AcDbLinetypeTableRecord
  2
BORDER2
 70
     0
  3
Border (.5x) __.__.__.__.__.__.
 72
    65
 73
     6
 40
0.875
 49
0.25
 74
     0
 49
-0.125
 74
     0
 49
0.25
 74
     0
 49
-0.125
 74
     0
 49
0.0
 74
     0
 49
-0.125
 74
     0
  0
LTYPE
  5
33
330
5
100
AcDbSymbolTableRecord
100
AcDbLinetypeTableRecord
  2
BORDERX2
 70
     0
  3
Border (2x) ____  ____  .  ____
 72
    65
 73
     6
 40
3.5
 49
1.0
 74
     0
 49
-0.5
 74
     0
 49
1.0
 74
     0
 49
-0.5
 74
     0
 49
0.0
 74
     0
 49
-0.5
 74
     0
  0
LTYPE
  5
34
330
5
100
AcDbSymbolTableRecord
100
AcDbLinetypeTableRecord
  2
CENTER2
 70
     0
  3
Center (.5x) ___ _ ___ _ ___ _ 
 72
    65
 73
     4
 40
1.125
 49
0.7500000000000001
 74
     0
 49
-0.125
 74
     0
 49
0.125
 74
     0
 49
-0.125
 74
     0
  0
LTYPE
  5
35
330
5
100
AcDbSymbolTableRecord
100
AcDbLinetypeTableRecord
  2
CENTERX2
 70
     0
  3
Center (2x) ________  __  _____
 72
    65
 73
     4
 40
4.0
 49
2.5
 74
     0
 49
-0.5
 74
     0
 49
0.5
 74
     0
 49
-0.5
 74
     0
  0
LTYPE
  5
36
330
5
100
AcDbSymbolTableRecord
100
AcDbLinetypeTableRecord
  2
DASHDOT2
 70
     0
  3
Dash dot (.5x) _._._._._._._._.
 72
    65
 73
     4
 40
0.5
 49
0.25
 74
     0
 49
-0.125
 74
     0
 49
0.0
 74
     0
 49
-0.125
 74
     0
  0
LTYPE
  5
37
330
5
100
AcDbSymbolTableRecord
100
AcDbLinetypeTableRecord
  2
DASHDOTX2
 70
     0
  3
Dash dot (2x) ____  .  ____  . 
 72
    65
 73
     4
 40
2.0
 49
1.0
 74
     0
 49
-0.5
 74
     0
 49
0.0
 74
     0
 49
-0.5
 74
     0
  0
LTYPE
  5
38
330
5
100
AcDbSymbolTableRecord
100
AcDbLinetypeTableRecord
  2
DASHED2
 70
     0
  3
Dashed (.5x) _ _ _ _ _ _ _ _ _ 
 72
    65
 73
     2
 40
0.375
 49
0.25
 74
     0
 49
-0.125
 74
     0
  0
LTYPE
  5
39
330
5
100
AcDbSymbolTableRecord
100
AcDbLinetypeTableRecord
  2
DASHEDX2
 70
     0
  3
Dashed (2x) ____  ____  ____  _
 72
    65
 73
     2
 40
1.5
 49
1.0
 74
     0
 49
-0.5
 74
     0
  0
LTYPE
  5
3A
330
5
100
AcDbSymbolTableRecord
100
AcDbLinetypeTableRecord
  2
DIVIDE2
 70
     0
  3
Divide (.5x) __..__..__..__..__
 72
    65
 73
     6
 40
0.625
 49
0.25
 74
     0
 49
-0.125
 74
     0
 49
0.0
 74
     0
 49
-0.125
 74
     0
 49
0.0
 74
     0
 49
-0.125
 74
     0
  0
LTYPE
  5
3B
330
5
100
AcDbSymbolTableRecord
100
AcDbLinetypeTableRecord
  2
DIVIDEX2
 70
     0
  3
Divide (2x) ________  .  .  ___
 72
    65
 73
     6
 40
2.5
 49
1.0
 74
     0
 49
-0.5
 74
     0
 49
0.0
 74
     0
 49
-0.5
 74
     0
 49
0.0
 74
     0
 49
-0.5
 74
     0
  0
LTYPE
  5
3C
330
5
100
AcDbSymbolTableRecord
100
AcDbLinetypeTableRecord
  2
DOT2
 70
     0
  3
Dot (.5x) .....................
 72
    65
 73
     2
 40
0.125
 49
0.0
 74
     0
 49
-0.125
 74
     0
  0
LTYPE
  5
3D
330
5
100
AcDbSymbolTableRecord
100
AcDbLinetypeTableRecord
  2
DOTX2
 70
     0
  3
Dot (2x) .  .  .  .  .  .  .  .
 72
    65
 73
     2
 40
0.5
 49
0.0
 74
     0
 49
-0.5
 74
     0
  0
LTYPE
  5
3E
330
5
100
AcDbSymbolTableRecord
100
AcDbLinetypeTableRecord
  2
HIDDEN2
 70
     0
  3
Hidden (.5x) _ _ _ _ _ _ _ _ _ 
 72
    65
 73
     2
 40
0.1875
 49
0.125
 74
     0
 49
-0.0625
 74
     0
  0
LTYPE
  5
3F
330
5
100
AcDbSymbolTableRecord
100
AcDbLinetypeTableRecord
  2
HIDDENX2
 70
     0
  3
Hidden (2x) ____ ____ ____ ____
 72
    65
 73
     2
 40
0.75
 49
0.5
 74
     0
 49
-0.25
 74
     0
  0
LTYPE
  5
40
330
5
100
AcDbSymbolTableRecord
100
AcDbLinetypeTableRecord
  2
PHANTOM2
 70
     0
  3
Phantom (.5x) ___ _ _ ___ _ _ _
 72
    65
 73
     6
 40
1.25
 49
0.6250000000000001
 74
     0
 49
-0.125
 74
     0
 49
0.125
 74
     0
 49
-0.125
 74
     0
 49
0.125
 74
     0
 49
-0.125
 74
     0
  0
LTYPE
  5
41
330
5
100
AcDbSymbolTableRecord
100
AcDbLinetypeTableRecord
  2
PHANTOMX2
 70
     0
  3
Phantom (2x) ____________    __
 72
    65
 73
     6
 40
5.0
 49
2.5
 74
     0
 49
-0.5
 74
     0
 49
0.5
 74
     0
 49
-0.5
 74
     0
 49
0.5
 74
     0
 49
-0.5
 74
     0
  0
LTYPE
  5
42
330
5
100
AcDbSymbolTableRecord
100
AcDbLinetypeTableRecord
  2
DOTS
 70
     0
  3
Dots - - - - - - - - - - - - - 
 72
    65
 73
     2
 40
0.1
 49
0.05
 74
     0
 49
-0.05
 74
     0
  0
LTYPE
  5
43
330
5
100
AcDbSymbolTableRecord
100
AcDbLinetypeTableRecord
  2
ACAD_ISO02W100
 70
     0
  3
__ __ __ __ __ __ __ __ __ __ _
 72
    65
 73
     2
 40
15.0
 49
12.0
 74
     0
 49
-3.0
 74
     0
  0
LTYPE
  5
44
330
5
100
AcDbSymbolTableRecord
100
AcDbLinetypeTableRecord
  2
ACAD_ISO03W100
 70
     0
  3
__    __    __    __    __    _
 72
    65
 73
     2
 40
30.0
 49
12.0
 74
     0
 49
-18.0
 74
     0
  0
LTYPE
  5
45
330
5
100
AcDbSymbolTableRecord
100
AcDbLinetypeTableRecord
  2
ACAD_ISO04W100
 70
     0
  3
____ . ____ . ____ . ____ . ___
 72
    65
 73
     4
 40
30.5
 49
24.0
 74
     0
 49
-3.0
 74
     0
 49
0.5
 74
     0
 49
-3.0
 74
     0
  0
LTYPE
  5
46
330
5
100
AcDbSymbolTableRecord
100
AcDbLinetypeTableRecord
  2
ACAD_ISO05W100
 70
     0
  3
____ .. ____ .. ____ .. ____ ..
 72
    65
 73
     6
 40
34.0
 49
24.0
 74
     0
 49
-3.0
 74
     0
 49
0.5
 74
     0
 49
-3.0
 74
     0
 49
0.5
 74
     0
 49
-3.0
 74
     0
  0
LTYPE
  5
47
330
5
100
AcDbSymbolTableRecord
100
AcDbLinetypeTableRecord
  2
ACAD_ISO06W100
 70
     0
  3
____ ... ____ ... ____ ... ____
 72
    65
 73
     6
 40
34.0
 49
24.0
 74
     0
 49
-3.0
 74
     0
 49
0.5
 74
     0
 49
-3.0
 74
     0
 49
0.5
 74
     0
 49
-3.0
 74
     0
  0
LTYPE
  5
48
330
5
100
AcDbSymbolTableRecord
100
AcDbLinetypeTableRecord
  2
ACAD_ISO07W100
 70
     0
  3
. . . . . . . . . . . . . . . .
 72
    65
 73
     2
 40
3.5
 49
0.5
 74
     0
 49
-3.0
 74
     0
  0
LTYPE
  5
49
330
5
100
AcDbSymbolTableRecord
100
AcDbLinetypeTableRecord
  2
ACAD_ISO08W100
 70
     0
  3
____ __ ____ __ ____ __ ____ __
 72
    65
 73
     4
 40
36.0
 49
24.0
 74
     0
 49
-3.0
 74
     0
 49
6.0
 74
     0
 49
-3.0
 74
     0
  0
LTYPE
  5
4A
330
5
100
AcDbSymbolTableRecord
100
AcDbLinetypeTableRecord
  2
ACAD_ISO09W100
 70
     0
  3
____ __ __ ____ __ __ ____ __ _
 72
    65
 73
     6
 40
45.0
 49
24.0
 74
     0
 49
-3.0
 74
     0
 49
6.0
 74
     0
 49
-3.0
 74
     0
 49
6.0
 74
     0
 49
-3.0
 74
     0
  0
LTYPE
  5
4B
330
5
100
AcDbSymbolTableRecord
100
AcDbLinetypeTableRecord
  2
ACAD_ISO10W100
 70
     0
  3
__ . __ . __ . __ . __ . __ . _
 72
    65
 73
     4
 40
18.5
 49
12.0
 74
     0
 49
-3.0
 74
     0
 49
0.5
 74
     0
 49
-3.0
 74
     0
  0
LTYPE
  5
4C
330
5
100
AcDbSymbolTableRecord
100
AcDbLinetypeTableRecord
  2
ACAD_ISO11W100
 70
     0
  3
__ __ . __ __ . __ __ . __ __ .
 72
    65
 73
     6
 40
33.5
 49
12.0
 74
     0
 49
-3.0
 74
     0
 49
12.0
 74
     0
 49
-3.0
 74
     0
 49
0.5
 74
     0
 49
-3.0
 74
     0
  0
LTYPE
  5
4D
330
5
100
AcDbSymbolTableRecord
100
AcDbLinetypeTableRecord
  2
ACAD_ISO12W100
 70
     0
  3
__ . . __ . . __ . . __ . . __ 
 72
    65
 73
     6
 40
22.0
 49
12.0
 74
     0
 49
-3.0
 74
     0
 49
0.5
 74
     0
 49
-3.0
 74
     0
 49
0.5
 74
     0
 49
-3.0
 74
     0
  0
LTYPE
  5
4E
330
5
100
AcDbSymbolTableRecord
100
AcDbLinetypeTableRecord
  2
ACAD_ISO13W100
 70
     0
  3
__ __ . . __ __ . . __ __ . . _
 72
    65
 73
     6
 40
33.5
 49
12.0
 74
     0
 49
-3.0
 74
     0
 49
12.0
 74
     0
 49
-3.0
 74
     0
 49
0.5
 74
     0
 49
-3.0
 74
     0
  0
LTYPE
  5
4F
330
5
100
AcDbSymbolTableRecord
100
AcDbLinetypeTableRecord
  2
ACAD_ISO14W100
 70
     0
  3
__ . . . __ . . . __ . . . __ .
 72
    65
 73
     6
 40
22.0
 49
12.0
 74
     0
 49
-3.0
 74
     0
 49
0.5
 74
     0
 49
-3.0
 74
     0
 49
0.5
 74
     0
 49
-3.0
 74
     0
  0
LTYPE
  5
50
330
5
100
AcDbSymbolTableRecord
100
AcDbLinetypeTableRecord
  2
ACAD_ISO15W100
 70
     0
  3
__ __ . . . __ __ . . . __ __ .
 72
    65
 73
     6
 40
33.5
 49
12.0
 74
     0
 49
-3.0
 74
     0
 49
12.0
 74
     0
 49
-3.0
 74
     0
 49
0.5
 74
     0
 49
-3.0
 74
     0
  0
ENDTAB
  0
TABLE
  2
LAYER
  5
2
330
0
100
AcDbSymbolTable
 70
     1
  0
LAYER
  5
10
330
2
100
AcDbSymbolTableRecord
100
AcDbLayerTableRecord
  2
0
 70
     0
 62
     7
  6
Continuous
370
    -3
390
F
  0
ENDTAB
  0
TABLE
  2
STYLE
  5
3
330
0
100
AcDbSymbolTable
 70
     4
  0
STYLE
  5
11
330
3
100
AcDbSymbolTableRecord
100
AcDbTextStyleTableRecord
  2
Standard
 70
     0
 40
0.0
 41
1.0
 50
0.0
 71
     0
 42
0.0010761479479133
  3
txt
  4

  0
STYLE
  5
51
330
3
100
AcDbSymbolTableRecord
100
AcDbTextStyleTableRecord
  2
ITALIC
 70
     0
 40
0.0
 41
1.0
 50
0.0
 71
     0
 42
0.0010761479479133
  3
ITALIC
  4

  0
STYLE
  5
52
330
3
100
AcDbSymbolTableRecord
100
AcDbTextStyleTableRecord
  2
SIMPLEX
 70
     0
 40
0.0
 41
1.0
 50
0.0
 71
     0
 42
0.0010761479479133
  3
SIMPLEX
  4

  0
STYLE
  5
53
330
3
100
AcDbSymbolTableRecord
100
AcDbTextStyleTableRecord
  2
COMPLEX
 70
     0
 40
0.0
 41
1.0
 50
0.0
 71
     0
 42
0.0010761479479133
  3
COMPLEX
  4

  0
ENDTAB
  0
TABLE
  2
VIEW
  5
6
330
0
100
AcDbSymbolTable
 70
     0
  0
ENDTAB
  0
TABLE
  2
UCS
  5
7
330
0
100
AcDbSymbolTable
 70
     0
  0
ENDTAB
  0
TABLE
  2
APPID
  5
9
330
0
100
AcDbSymbolTable
 70
     1
  0
APPID
  5
12
330
9
100
AcDbSymbolTableRecord
100
AcDbRegAppTableRecord
  2
ACAD
 70
     0
  0
ENDTAB
  0
TABLE
  2
DIMSTYLE
  5
A
330
0
100
AcDbSymbolTable
 70
     1
100
AcDbDimStyleTable
 71
     0
  0
DIMSTYLE
105
29
330
A
100
AcDbSymbolTableRecord
100
AcDbDimStyleTableRecord
  2
Standard
 70
     0
340
11
  0
ENDTAB
  0
TABLE
  2
BLOCK_RECORD
  5
1
330
0
100
AcDbSymbolTable
 70
     1
  0
BLOCK_RECORD
  5
21
330
1
100
AcDbSymbolTableRecord
100
AcDbBlockTableRecord
  2
*Model_Space
340
24
  0
BLOCK_RECORD
  5
1D
330
1
100
AcDbSymbolTableRecord
100
AcDbBlockTableRecord
  2
*Paper_Space
340
20
  0
BLOCK_RECORD
  5
25
330
1
100
AcDbSymbolTableRecord
100
AcDbBlockTableRecord
  2
*Paper_Space0
340
28
  0
ENDTAB
  0
ENDSEC
  0
SECTION
  2
BLOCKS
  0
BLOCK
  5
22
330
21
100
AcDbEntity
  8
0
100
AcDbBlockBegin
  2
*Model_Space
 70
     0
 10
0.0
 20
0.0
 30
0.0
  3
*Model_Space
  1

  0
ENDBLK
  5
23
330
21
100
AcDbEntity
  8
0
100
AcDbBlockEnd
  0
BLOCK
  5
1E
330
1D
100
AcDbEntity
 67
     1
  8
0
100
AcDbBlockBegin
  2
*Paper_Space
 70
     0
 10
0.0
 20
0.0
 30
0.0
  3
*Paper_Space
  1

  0
ENDBLK
  5
1F
330
1D
100
AcDbEntity
 67
     1
  8
0
100
AcDbBlockEnd
  0
BLOCK
  5
26
330
25
100
AcDbEntity
  8
0
100
AcDbBlockBegin
  2
*Paper_Space0
 70
     0
 10
0.0
 20
0.0
 30
0.0
  3
*Paper_Space0
  1

  0
ENDBLK
  5
27
330
25
100
AcDbEntity
  8
0
100
AcDbBlockEnd
  0
ENDSEC
  0
SECTION
  2
ENTITIES
  0
CIRCLE
  5
54
330
21
100
AcDbEntity
  8
0
100
AcDbCircle
 10
0.0
 20
0.0
 30
0.0
 40
0.0
  0
LINE
  5
55
330
21
100
AcDbEntity
  8
0
100
AcDbLine
 10
0.3737007874015748
 20
-0.0760236220472441
 30
0.0
 11
0.3780314960629921
 21
-0.0681496062992126
 31
0.0
  0
LINE
  5
56
330
21
100
AcDbEntity
  8
0
100
AcDbLine
 10
0.3780314960629921
 20
-0.0681496062992126
 30
0.0
 11
0.3871653543307087
 21
-0.0622047244094488
 31
0.0
  0
LINE
  5
57
330
21
100
AcDbEntity
  8
0
100
AcDbLine
 10
0.3871653543307087
 20
-0.0622047244094488
 30
0.0
 11
0.4007874015748032
 21
-0.0590157480314961
 31
0.0
  0
LINE
  5
58
330
21
100
AcDbEntity
  8
0
100
AcDbLine
 10
0.4007874015748032
 20
-0.0590157480314961
 30
0.0
 11
0.4183858267716536
 21
-0.0594094488188977
 31
0.0
  0
LINE
  5
59
330
21
100
AcDbEntity
  8
0
100
AcDbLine
 10
0.4183858267716536
 20
-0.0594094488188977
 30
0.0
 11
0.4392519685039371
 21
-0.064488188976378
 31
0.0
  0
LINE
  5
5A
330
21
100
AcDbEntity
  8
0
100
AcDbLine
 10
0.4392519685039371
 20
-0.064488188976378
 30
0.0
 11
0.4477952755905513
 21
-0.0646456692913386
 31
0.0
  0
LINE
  5
5B
330
21
100
AcDbEntity
  8
0
100
AcDbLine
 10
0.4477952755905513
 20
-0.0646456692913386
 30
0.0
 11
0.4563385826771654
 21
-0.0638188976377953
 31
0.0
  0
LINE
  5
5C
330
21
100
AcDbEntity
  8
0
100
AcDbLine
 10
0.4563385826771654
 20
-0.0638188976377953
 30
0.0
 11
0.4648425196850394
 21
-0.0624015748031496
 31
0.0
  0
LINE
  5
5D
330
21
100
AcDbEntity
  8
0
100
AcDbLine
 10
0.4648425196850394
 20
-0.0624015748031496
 30
0.0
 11
0.4731889763779528
 21
-0.060511811023622
 31
0.0
  0
LINE
  5
5E
330
21
100
AcDbEntity
  8
0
100
AcDbLine
 10
0.4731889763779528
 20
-0.060511811023622
 30
0.0
 11
0.4814566929133859
 21
-0.0582283464566929
 31
0.0
  0
LINE
  5
5F
330
21
100
AcDbEntity
  8
0
100
AcDbLine
 10
0.4814566929133859
 20
-0.0582283464566929
 30
0.0
 11
0.4896456692913386
 21
-0.0555511811023622
 31
0.0
  0
LINE
  5
60
330
21
100
AcDbEntity
  8
0
100
AcDbLine
 10
0.4896456692913386
 20
-0.0555511811023622
 30
0.0
 11
0.4976771653543307
 21
-0.0525590551181102
 31
0.0
  0
LINE
  5
61
330
21
100
AcDbEntity
  8
0
100
AcDbLine
 10
0.4976771653543307
 20
-0.0525590551181102
 30
0.0
 11
0.5055905511811024
 21
-0.0492913385826772
 31
0.0
  0
LINE
  5
62
330
21
100
AcDbEntity
  8
0
100
AcDbLine
 10
0.5055905511811024
 20
-0.0492913385826772
 30
0.0
 11
0.5134251968503937
 21
-0.045748031496063
 31
0.0
  0
LINE
  5
63
330
21
100
AcDbEntity
  8
0
100
AcDbLine
 10
0.5134251968503937
 20
-0.045748031496063
 30
0.0
 11
0.5211023622047244
 21
-0.0419291338582677
 31
0.0
  0
LINE
  5
64
330
21
100
AcDbEntity
  8
0
100
AcDbLine
 10
0.5211023622047244
 20
-0.0419291338582677
 30
0.0
 11
0.5286614173228346
 21
-0.0378740157480315
 31
0.0
  0
LINE
  5
65
330
21
100
AcDbEntity
  8
0
100
AcDbLine
 10
0.5286614173228346
 20
-0.0378740157480315
 30
0.0
 11
0.5361417322834647
 21
-0.0335826771653543
 31
0.0
  0
LINE
  5
66
330
21
100
AcDbEntity
  8
0
100
AcDbLine
 10
0.5361417322834647
 20
-0.0335826771653543
 30
0.0
 11
0.5434645669291339
 21
-0.0291338582677165
 31
0.0
  0
LINE
  5
67
330
21
100
AcDbEntity
  8
0
100
AcDbLine
 10
0.5434645669291339
 20
-0.0291338582677165
 30
0.0
 11
0.5506299212598425
 21
-0.0244488188976378
 31
0.0
  0
LINE
  5
68
330
21
100
AcDbEntity
  8
0
100
AcDbLine
 10
0.5506299212598425
 20
-0.0244488188976378
 30
0.0
 11
0.5506299212598425
 21
0.0244488188976378
 31
0.0
  0
LINE
  5
69
330
21
100
AcDbEntity
  8
0
100
AcDbLine
 10
0.5506299212598425
 20
0.0244488188976378
 30
0.0
 11
0.5434645669291339
 21
0.0291338582677165
 31
0.0
  0
LINE
  5
6A
330
21
100
AcDbEntity
  8
0
100
AcDbLine
 10
0.5434645669291339
 20
0.0291338582677165
 30
0.0
 11
0.5361417322834647
 21
0.0335826771653543
 31
0.0
  0
LINE
  5
6B
330
21
100
AcDbEntity
  8
0
100
AcDbLine
 10
0.5361417322834647
 20
0.0335826771653543
 30
0.0
 11
0.5286614173228346
 21
0.0378740157480315
 31
0.0
  0
LINE
  5
6C
330
21
100
AcDbEntity
  8
0
100
AcDbLine
 10
0.5286614173228346
 20
0.0378740157480315
 30
0.0
 11
0.5211023622047244
 21
0.0419291338582677
 31
0.0
  0
LINE
  5
6D
330
21
100
AcDbEntity
  8
0
100
AcDbLine
 10
0.5211023622047244
 20
0.0419291338582677
 30
0.0
 11
0.5134251968503937
 21
0.045748031496063
 31
0.0
  0
LINE
  5
6E
330
21
100
AcDbEntity
  8
0
100
AcDbLine
 10
0.5134251968503937
 20
0.045748031496063
 30
0.0
 11
0.5055905511811024
 21
0.0492913385826772
 31
0.0
  0
LINE
  5
6F
330
21
100
AcDbEntity
  8
0
100
AcDbLine
 10
0.5055905511811024
 20
0.0492913385826772
 30
0.0
 11
0.4976771653543307
 21
0.0525590551181102
 31
0.0
  0
LINE
  5
70
330
21
100
AcDbEntity
  8
0
100
AcDbLine
 10
0.4976771653543307
 20
0.0525590551181102
 30
0.0
 11
0.4896456692913386
 21
0.0555511811023622
 31
0.0
  0
LINE
  5
71
330
21
100
AcDbEntity
  8
0
100
AcDbLine
 10
0.4896456692913386
 20
0.0555511811023622
 30
0.0
 11
0.4814566929133859
 21
0.0582283464566929
 31
0.0
  0
LINE
  5
72
330
21
100
AcDbEntity
  8
0
100
AcDbLine
 10
0.4814566929133859
 20
0.0582283464566929
 30
0.0
 11
0.4731889763779528
 21
0.060511811023622
 31
0.0
  0
LINE
  5
73
330
21
100
AcDbEntity
  8
0
100
AcDbLine
 10
0.4731889763779528
 20
0.060511811023622
 30
0.0
 11
0.4648425196850394
 21
0.0624015748031496
 31
0.0
  0
LINE
  5
74
330
21
100
AcDbEntity
  8
0
100
AcDbLine
 10
0.4648425196850394
 20
0.0624015748031496
 30
0.0
 11
0.4563385826771654
 21
0.0638188976377953
 31
0.0
  0
LINE
  5
75
330
21
100
AcDbEntity
  8
0
100
AcDbLine
 10
0.4563385826771654
 20
0.0638188976377953
 30
0.0
 11
0.4477952755905513
 21
0.0646456692913386
 31
0.0
  0
LINE
  5
76
330
21
100
AcDbEntity
  8
0
100
AcDbLine
 10
0.4477952755905513
 20
0.0646456692913386
 30
0.0
 11
0.4392519685039371
 21
0.064488188976378
 31
0.0
  0
LINE
  5
77
330
21
100
AcDbEntity
  8
0
100
AcDbLine
 10
0.4392519685039371
 20
0.064488188976378
 30
0.0
 11
0.4183858267716536
 21
0.0594094488188977
 31
0.0
  0
LINE
  5
78
330
21
100
AcDbEntity
  8
0
100
AcDbLine
 10
0.4183858267716536
 20
0.0594094488188977
 30
0.0
 11
0.4007874015748032
 21
0.0590157480314961
 31
0.0
  0
LINE
  5
79
330
21
100
AcDbEntity
  8
0
100
AcDbLine
 10
0.4007874015748032
 20
0.0590157480314961
 30
0.0
 11
0.3871653543307087
 21
0.0622047244094488
 31
0.0
  0
LINE
  5
7A
330
21
100
AcDbEntity
  8
0
100
AcDbLine
 10
0.3871653543307087
 20
0.0622047244094488
 30
0.0
 11
0.3780314960629921
 21
0.0681496062992126
 31
0.0
  0
LINE
  5
7B
330
21
100
AcDbEntity
  8
0
100
AcDbLine
 10
0.3780314960629921
 20
0.0681496062992126
 30
0.0
 11
0.3737007874015748
 21
0.0760236220472441
 31
0.0
  0
LINE
  5
7C
330
21
100
AcDbEntity
  8
0
100
AcDbLine
 10
0.3737007874015748
 20
0.0760236220472441
 30
0.0
 11
0.3616535433070866
 21
0.1209842519685039
 31
0.0
  0
LINE
  5
7D
330
21
100
AcDbEntity
  8
0
100
AcDbLine
 10
0.3616535433070866
 20
0.1209842519685039
 30
0.0
 11
0.3614566929133858
 21
0.13
 31
0.0
  0
LINE
  5
7E
330
21
100
AcDbEntity
  8
0
100
AcDbLine
 10
0.3614566929133858
 20
0.13
 30
0.0
 11
0.3664173228346457
 21
0.1397244094488189
 31
0.0
  0
LINE
  5
7F
330
21
100
AcDbEntity
  8
0
100
AcDbLine
 10
0.3664173228346457
 20
0.1397244094488189
 30
0.0
 11
0.3766141732283465
 21
0.1492913385826772
 31
0.0
  0
LINE
  5
80
330
21
100
AcDbEntity
  8
0
100
AcDbLine
 10
0.3766141732283465
 20
0.1492913385826772
 30
0.0
 11
0.3920472440944882
 21
0.157755905511811
 31
0.0
  0
LINE
  5
81
330
21
100
AcDbEntity
  8
0
100
AcDbLine
 10
0.3920472440944882
 20
0.157755905511811
 30
0.0
 11
0.4126377952755905
 21
0.1637795275590551
 31
0.0
  0
LINE
  5
82
330
21
100
AcDbEntity
  8
0
100
AcDbLine
 10
0.4126377952755905
 20
0.1637795275590551
 30
0.0
 11
0.4201181102362204
 21
0.1679527559055118
 31
0.0
  0
LINE
  5
83
330
21
100
AcDbEntity
  8
0
100
AcDbLine
 10
0.4201181102362204
 20
0.1679527559055118
 30
0.0
 11
0.4271259842519685
 21
0.1729133858267716
 31
0.0
  0
LINE
  5
84
330
21
100
AcDbEntity
  8
0
100
AcDbLine
 10
0.4271259842519685
 20
0.1729133858267716
 30
0.0
 11
0.4337401574803151
 21
0.1783464566929134
 31
0.0
  0
LINE
  5
85
330
21
100
AcDbEntity
  8
0
100
AcDbLine
 10
0.4337401574803151
 20
0.1783464566929134
 30
0.0
 11
0.4400787401574803
 21
0.1841732283464567
 31
0.0
  0
LINE
  5
86
330
21
100
AcDbEntity
  8
0
100
AcDbLine
 10
0.4400787401574803
 20
0.1841732283464567
 30
0.0
 11
0.4460629921259843
 21
0.1903149606299212
 31
0.0
  0
LINE
  5
87
330
21
100
AcDbEntity
  8
0
100
AcDbLine
 10
0.4460629921259843
 20
0.1903149606299212
 30
0.0
 11
0.4518110236220473
 21
0.1966929133858268
 31
0.0
  0
LINE
  5
88
330
21
100
AcDbEntity
  8
0
100
AcDbLine
 10
0.4518110236220473
 20
0.1966929133858268
 30
0.0
 11
0.4572834645669292
 21
0.2033070866141732
 31
0.0
  0
LINE
  5
89
330
21
100
AcDbEntity
  8
0
100
AcDbLine
 10
0.4572834645669292
 20
0.2033070866141732
 30
0.0
 11
0.4625196850393701
 21
0.2101181102362205
 31
0.0
  0
LINE
  5
8A
330
21
100
AcDbEntity
  8
0
100
AcDbLine
 10
0.4625196850393701
 20
0.2101181102362205
 30
0.0
 11
0.4675196850393701
 21
0.2170866141732283
 31
0.0
  0
LINE
  5
8B
330
21
100
AcDbEntity
  8
0
100
AcDbLine
 10
0.4675196850393701
 20
0.2170866141732283
 30
0.0
 11
0.4722440944881889
 21
0.224251968503937
 31
0.0
  0
LINE
  5
8C
330
21
100
AcDbEntity
  8
0
100
AcDbLine
 10
0.4722440944881889
 20
0.224251968503937
 30
0.0
 11
0.4767716535433071
 21
0.2315354330708661
 31
0.0
  0
LINE
  5
8D
330
21
100
AcDbEntity
  8
0
100
AcDbLine
 10
0.4767716535433071
 20
0.2315354330708661
 30
0.0
 11
0.4811023622047245
 21
0.2389763779527559
 31
0.0
  0
LINE
  5
8E
330
21
100
AcDbEntity
  8
0
100
AcDbLine
 10
0.4811023622047245
 20
0.2389763779527559
 30
0.0
 11
0.4851968503937009
 21
0.246496062992126
 31
0.0
  0
LINE
  5
8F
330
21
100
AcDbEntity
  8
0
100
AcDbLine
 10
0.4851968503937009
 20
0.246496062992126
 30
0.0
 11
0.4890944881889764
 21
0.2541732283464567
 31
0.0
  0
LINE
  5
90
330
21
100
AcDbEntity
  8
0
100
AcDbLine
 10
0.4890944881889764
 20
0.2541732283464567
 30
0.0
 11
0.4646456692913386
 21
0.296496062992126
 31
0.0
  0
LINE
  5
91
330
21
100
AcDbEntity
  8
0
100
AcDbLine
 10
0.4646456692913386
 20
0.296496062992126
 30
0.0
 11
0.4560629921259844
 21
0.2969291338582678
 31
0.0
  0
LINE
  5
92
330
21
100
AcDbEntity
  8
0
100
AcDbLine
 10
0.4560629921259844
 20
0.2969291338582678
 30
0.0
 11
0.4475196850393701
 21
0.2971653543307086
 31
0.0
  0
LINE
  5
93
330
21
100
AcDbEntity
  8
0
100
AcDbLine
 10
0.4475196850393701
 20
0.2971653543307086
 30
0.0
 11
0.4388976377952756
 21
0.2971259842519685
 31
0.0
  0
LINE
  5
94
330
21
100
AcDbEntity
  8
0
100
AcDbLine
 10
0.4388976377952756
 20
0.2971259842519685
 30
0.0
 11
0.4303543307086614
 21
0.2968503937007874
 31
0.0
  0
LINE
  5
95
330
21
100
AcDbEntity
  8
0
100
AcDbLine
 10
0.4303543307086614
 20
0.2968503937007874
 30
0.0
 11
0.4217716535433071
 21
0.2962992125984252
 31
0.0
  0
LINE
  5
96
330
21
100
AcDbEntity
  8
0
100
AcDbLine
 10
0.4217716535433071
 20
0.2962992125984252
 30
0.0
 11
0.4132283464566929
 21
0.2955118110236221
 31
0.0
  0
LINE
  5
97
330
21
100
AcDbEntity
  8
0
100
AcDbLine
 10
0.4132283464566929
 20
0.2955118110236221
 30
0.0
 11
0.4047244094488189
 21
0.2943700787401575
 31
0.0
  0
LINE
  5
98
330
21
100
AcDbEntity
  8
0
100
AcDbLine
 10
0.4047244094488189
 20
0.2943700787401575
 30
0.0
 11
0.396259842519685
 21
0.2929527559055118
 31
0.0
  0
LINE
  5
99
330
21
100
AcDbEntity
  8
0
100
AcDbLine
 10
0.396259842519685
 20
0.2929527559055118
 30
0.0
 11
0.3878346456692914
 21
0.2911417322834646
 31
0.0
  0
LINE
  5
9A
330
21
100
AcDbEntity
  8
0
100
AcDbLine
 10
0.3878346456692914
 20
0.2911417322834646
 30
0.0
 11
0.3795275590551181
 21
0.2890157480314961
 31
0.0
  0
LINE
  5
9B
330
21
100
AcDbEntity
  8
0
100
AcDbLine
 10
0.3795275590551181
 20
0.2890157480314961
 30
0.0
 11
0.3713385826771653
 21
0.2864566929133858
 31
0.0
  0
LINE
  5
9C
330
21
100
AcDbEntity
  8
0
100
AcDbLine
 10
0.3713385826771653
 20
0.2864566929133858
 30
0.0
 11
0.3633070866141732
 21
0.2834645669291338
 31
0.0
  0
LINE
  5
9D
330
21
100
AcDbEntity
  8
0
100
AcDbLine
 10
0.3633070866141732
 20
0.2834645669291338
 30
0.0
 11
0.355511811023622
 21
0.2798818897637795
 31
0.0
  0
LINE
  5
9E
330
21
100
AcDbEntity
  8
0
100
AcDbLine
 10
0.355511811023622
 20
0.2798818897637795
 30
0.0
 11
0.3481496062992126
 21
0.2754724409448819
 31
0.0
  0
LINE
  5
9F
330
21
100
AcDbEntity
  8
0
100
AcDbLine
 10
0.3481496062992126
 20
0.2754724409448819
 30
0.0
 11
0.3326377952755906
 21
0.2606299212598425
 31
0.0
  0
LINE
  5
A0
330
21
100
AcDbEntity
  8
0
100
AcDbLine
 10
0.3326377952755906
 20
0.2606299212598425
 30
0.0
 11
0.3175984251968504
 21
0.2514960629921259
 31
0.0
  0
LINE
  5
A1
330
21
100
AcDbEntity
  8
0
100
AcDbLine
 10
0.3175984251968504
 20
0.2514960629921259
 30
0.0
 11
0.3042125984251969
 21
0.2474409448818898
 31
0.0
  0
LINE
  5
A2
330
21
100
AcDbEntity
  8
0
100
AcDbLine
 10
0.3042125984251969
 20
0.2474409448818898
 30
0.0
 11
0.2933070866141732
 21
0.2480314960629921
 31
0.0
  0
LINE
  5
A3
330
21
100
AcDbEntity
  8
0
100
AcDbLine
 10
0.2933070866141732
 20
0.2480314960629921
 30
0.0
 11
0.2855905511811023
 21
0.2526771653543307
 31
0.0
  0
LINE
  5
A4
330
21
100
AcDbEntity
  8
0
100
AcDbLine
 10
0.2855905511811023
 20
0.2526771653543307
 30
0.0
 11
0.2526771653543307
 21
0.2855905511811023
 31
0.0
  0
LINE
  5
A5
330
21
100
AcDbEntity
  8
0
100
AcDbLine
 10
0.2526771653543307
 20
0.2855905511811023
 30
0.0
 11
0.2480314960629921
 21
0.2933070866141732
 31
0.0
  0
LINE
  5
A6
330
21
100
AcDbEntity
  8
0
100
AcDbLine
 10
0.2480314960629921
 20
0.2933070866141732
 30
0.0
 11
0.2474409448818898
 21
0.3042125984251969
 31
0.0
  0
LINE
  5
A7
330
21
100
AcDbEntity
  8
0
100
AcDbLine
 10
0.2474409448818898
 20
0.3042125984251969
 30
0.0
 11
0.2514960629921259
 21
0.3175984251968504
 31
0.0
  0
LINE
  5
A8
330
21
100
AcDbEntity
  8
0
100
AcDbLine
 10
0.2514960629921259
 20
0.3175984251968504
 30
0.0
 11
0.2606299212598425
 21
0.3326377952755906
 31
0.0
  0
LINE
  5
A9
330
21
100
AcDbEntity
  8
0
100
AcDbLine
 10
0.2606299212598425
 20
0.3326377952755906
 30
0.0
 11
0.2754724409448819
 21
0.3481496062992126
 31
0.0
  0
LINE
  5
AA
330
21
100
AcDbEntity
  8
0
100
AcDbLine
 10
0.2754724409448819
 20
0.3481496062992126
 30
0.0
 11
0.2798818897637795
 21
0.355511811023622
 31
0.0
  0
LINE
  5
AB
330
21
100
AcDbEntity
  8
0
100
AcDbLine
 10
0.2798818897637795
 20
0.355511811023622
 30
0.0
 11
0.2834645669291338
 21
0.3633070866141732
 31
0.0
  0
LINE
  5
AC
330
21
100
AcDbEntity
  8
0
100
AcDbLine
 10
0.2834645669291338
 20
0.3633070866141732
 30
0.0
 11
0.2864566929133858
 21
0.3713385826771653
 31
0.0
  0
LINE
  5
AD
330
21
100
AcDbEntity
  8
0
100
AcDbLine
 10
0.2864566929133858
 20
0.3713385826771653
 30
0.0
 11
0.2890157480314961
 21
0.3795275590551181
 31
0.0
  0
LINE
  5
AE
330
21
100
AcDbEntity
  8
0
100
AcDbLine
 10
0.2890157480314961
 20
0.3795275590551181
 30
0.0
 11
0.2911417322834646
 21
0.3878346456692914
 31
0.0
  0
LINE
  5
AF
330
21
100
AcDbEntity
  8
0
100
AcDbLine
 10
0.2911417322834646
 20
0.3878346456692914
 30
0.0
 11
0.2929527559055118
 21
0.396259842519685
 31
0.0
  0
LINE
  5
B0
330
21
100
AcDbEntity
  8
0
100
AcDbLine
 10
0.2929527559055118
 20
0.396259842519685
 30
0.0
 11
0.2943700787401575
 21
0.4047244094488189
 31
0.0
  0
LINE
  5
B1
330
21
100
AcDbEntity
  8
0
100
AcDbLine
 10
0.2943700787401575
 20
0.4047244094488189
 30
0.0
 11
0.2955118110236221
 21
0.4132283464566929
 31
0.0
  0
LINE
  5
B2
330
21
100
AcDbEntity
  8
0
100
AcDbLine
 10
0.2955118110236221
 20
0.4132283464566929
 30
0.0
 11
0.2962992125984252
 21
0.4217716535433071
 31
0.0
  0
LINE
  5
B3
330
21
100
AcDbEntity
  8
0
100
AcDbLine
 10
0.2962992125984252
 20
0.4217716535433071
 30
0.0
 11
0.2968503937007874
 21
0.4303543307086614
 31
0.0
  0
LINE
  5
B4
330
21
100
AcDbEntity
  8
0
100
AcDbLine
 10
0.2968503937007874
 20
0.4303543307086614
 30
0.0
 11
0.2971259842519685
 21
0.4388976377952756
 31
0.0
  0
LINE
  5
B5
330
21
100
AcDbEntity
  8
0
100
AcDbLine
 10
0.2971259842519685
 20
0.4388976377952756
 30
0.0
 11
0.2971653543307086
 21
0.4475196850393701
 31
0.0
  0
LINE
  5
B6
330
21
100
AcDbEntity
  8
0
100
AcDbLine
 10
0.2971653543307086
 20
0.4475196850393701
 30
0.0
 11
0.2969291338582678
 21
0.4560629921259844
 31
0.0
  0
LINE
  5
B7
330
21
100
AcDbEntity
  8
0
100
AcDbLine
 10
0.2969291338582678
 20
0.4560629921259844
 30
0.0
 11
0.296496062992126
 21
0.4646456692913386
 31
0.0
  0
LINE
  5
B8
330
21
100
AcDbEntity
  8
0
100
AcDbLine
 10
0.296496062992126
 20
0.4646456692913386
 30
0.0
 11
0.2541732283464567
 21
0.4890944881889764
 31
0.0
  0
LINE
  5
B9
330
21
100
AcDbEntity
  8
0
100
AcDbLine
 10
0.2541732283464567
 20
0.4890944881889764
 30
0.0
 11
0.246496062992126
 21
0.4851968503937009
 31
0.0
  0
LINE
  5
BA
330
21
100
AcDbEntity
  8
0
100
AcDbLine
 10
0.246496062992126
 20
0.4851968503937009
 30
0.0
 11
0.2389763779527559
 21
0.4811023622047245
 31
0.0
  0
LINE
  5
BB
330
21
100
AcDbEntity
  8
0
100
AcDbLine
 10
0.2389763779527559
 20
0.4811023622047245
 30
0.0
 11
0.2315354330708661
 21
0.4767716535433071
 31
0.0
  0
LINE
  5
BC
330
21
100
AcDbEntity
  8
0
100
AcDbLine
 10
0.2315354330708661
 20
0.4767716535433071
 30
0.0
 11
0.224251968503937
 21
0.4722440944881889
 31
0.0
  0
LINE
  5
BD
330
21
100
AcDbEntity
  8
0
100
AcDbLine
 10
0.224251968503937
 20
0.4722440944881889
 30
0.0
 11
0.2170866141732283
 21
0.4675196850393701
 31
0.0
  0
LINE
  5
BE
330
21
100
AcDbEntity
  8
0
100
AcDbLine
 10
0.2170866141732283
 20
0.4675196850393701
 30
0.0
 11
0.2101181102362205
 21
0.4625196850393701
 31
0.0
  0
LINE
  5
BF
330
21
100
AcDbEntity
  8
0
100
AcDbLine
 10
0.2101181102362205
 20
0.4625196850393701
 30
0.0
 11
0.2033070866141732
 21
0.4572834645669292
 31
0.0
  0
LINE
  5
C0
330
21
100
AcDbEntity
  8
0
100
AcDbLine
 10
0.2033070866141732
 20
0.4572834645669292
 30
0.0
 11
0.1966929133858268
 21
0.4518110236220473
 31
0.0
  0
LINE
  5
C1
330
21
100
AcDbEntity
  8
0
100
AcDbLine
 10
0.1966929133858268
 20
0.4518110236220473
 30
0.0
 11
0.1903149606299212
 21
0.4460629921259843
 31
0.0
  0
LINE
  5
C2
330
21
100
AcDbEntity
  8
0
100
AcDbLine
 10
0.1903149606299212
 20
0.4460629921259843
 30
0.0
 11
0.1841732283464567
 21
0.4400787401574803
 31
0.0
  0
LINE
  5
C3
330
21
100
AcDbEntity
  8
0
100
AcDbLine
 10
0.1841732283464567
 20
0.4400787401574803
 30
0.0
 11
0.1783464566929134
 21
0.4337401574803151
 31
0.0
  0
LINE
  5
C4
330
21
100
AcDbEntity
  8
0
100
AcDbLine
 10
0.1783464566929134
 20
0.4337401574803151
 30
0.0
 11
0.1729133858267716
 21
0.4271259842519685
 31
0.0
  0
LINE
  5
C5
330
21
100
AcDbEntity
  8
0
100
AcDbLine
 10
0.1729133858267716
 20
0.4271259842519685
 30
0.0
 11
0.1679527559055118
 21
0.4201181102362204
 31
0.0
  0
LINE
  5
C6
330
21
100
AcDbEntity
  8
0
100
AcDbLine
 10
0.1679527559055118
 20
0.4201181102362204
 30
0.0
 11
0.1637795275590551
 21
0.4126377952755905
 31
0.0
  0
LINE
  5
C7
330
21
100
AcDbEntity
  8
0
100
AcDbLine
 10
0.1637795275590551
 20
0.4126377952755905
 30
0.0
 11
0.157755905511811
 21
0.3920472440944882
 31
0.0
  0
LINE
  5
C8
330
21
100
AcDbEntity
  8
0
100
AcDbLine
 10
0.157755905511811
 20
0.3920472440944882
 30
0.0
 11
0.1492913385826772
 21
0.3766141732283465
 31
0.0
  0
LINE
  5
C9
330
21
100
AcDbEntity
  8
0
100
AcDbLine
 10
0.1492913385826772
 20
0.3766141732283465
 30
0.0
 11
0.1397244094488189
 21
0.3664173228346457
 31
0.0
  0
LINE
  5
CA
330
21
100
AcDbEntity
  8
0
100
AcDbLine
 10
0.1397244094488189
 20
0.3664173228346457
 30
0.0
 11
0.13
 21
0.3614566929133858
 31
0.0
  0
LINE
  5
CB
330
21
100
AcDbEntity
  8
0
100
AcDbLine
 10
0.13
 20
0.3614566929133858
 30
0.0
 11
0.1209842519685039
 21
0.3616535433070866
 31
0.0
  0
LINE
  5
CC
330
21
100
AcDbEntity
  8
0
100
AcDbLine
 10
0.1209842519685039
 20
0.3616535433070866
 30
0.0
 11
0.0760236220472441
 21
0.3737007874015748
 31
0.0
  0
LINE
  5
CD
330
21
100
AcDbEntity
  8
0
100
AcDbLine
 10
0.0760236220472441
 20
0.3737007874015748
 30
0.0
 11
0.0681496062992126
 21
0.3780314960629921
 31
0.0
  0
LINE
  5
CE
330
21
100
AcDbEntity
  8
0
100
AcDbLine
 10
0.0681496062992126
 20
0.3780314960629921
 30
0.0
 11
0.0622047244094488
 21
0.3871653543307087
 31
0.0
  0
LINE
  5
CF
330
21
100
AcDbEntity
  8
0
100
AcDbLine
 10
0.0622047244094488
 20
0.3871653543307087
 30
0.0
 11
0.0590157480314961
 21
0.4007874015748032
 31
0.0
  0
LINE
  5
D0
330
21
100
AcDbEntity
  8
0
100
AcDbLine
 10
0.0590157480314961
 20
0.4007874015748032
 30
0.0
 11
0.0594094488188977
 21
0.4183858267716536
 31
0.0
  0
LINE
  5
D1
330
21
100
AcDbEntity
  8
0
100
AcDbLine
 10
0.0594094488188977
 20
0.4183858267716536
 30
0.0
 11
0.064488188976378
 21
0.4392519685039371
 31
0.0
  0
LINE
  5
D2
330
21
100
AcDbEntity
  8
0
100
AcDbLine
 10
0.064488188976378
 20
0.4392519685039371
 30
0.0
 11
0.0646456692913386
 21
0.4477952755905513
 31
0.0
  0
LINE
  5
D3
330
21
100
AcDbEntity
  8
0
100
AcDbLine
 10
0.0646456692913386
 20
0.4477952755905513
 30
0.0
 11
0.0638188976377953
 21
0.4563385826771654
 31
0.0
  0
LINE
  5
D4
330
21
100
AcDbEntity
  8
0
100
AcDbLine
 10
0.0638188976377953
 20
0.4563385826771654
 30
0.0
 11
0.0624015748031496
 21
0.4648425196850394
 31
0.0
  0
LINE
  5
D5
330
21
100
AcDbEntity
  8
0
100
AcDbLine
 10
0.0624015748031496
 20
0.4648425196850394
 30
0.0
 11
0.060511811023622
 21
0.4731889763779528
 31
0.0
  0
LINE
  5
D6
330
21
100
AcDbEntity
  8
0
100
AcDbLine
 10
0.060511811023622
 20
0.4731889763779528
 30
0.0
 11
0.0582283464566929
 21
0.4814566929133859
 31
0.0
  0
LINE
  5
D7
330
21
100
AcDbEntity
  8
0
100
AcDbLine
 10
0.0582283464566929
 20
0.4814566929133859
 30
0.0
 11
0.0555511811023622
 21
0.4896456692913386
 31
0.0
  0
LINE
  5
D8
330
21
100
AcDbEntity
  8
0
100
AcDbLine
 10
0.0555511811023622
 20
0.4896456692913386
 30
0.0
 11
0.0525590551181102
 21
0.4976771653543307
 31
0.0
  0
LINE
  5
D9
330
21
100
AcDbEntity
  8
0
100
AcDbLine
 10
0.0525590551181102
 20
0.4976771653543307
 30
0.0
 11
0.0492913385826772
 21
0.5055905511811024
 31
0.0
  0
LINE
  5
DA
330
21
100
AcDbEntity
  8
0
100
AcDbLine
 10
0.0492913385826772
 20
0.5055905511811024
 30
0.0
 11
0.045748031496063
 21
0.5134251968503937
 31
0.0
  0
LINE
  5
DB
330
21
100
AcDbEntity
  8
0
100
AcDbLine
 10
0.045748031496063
 20
0.5134251968503937
 30
0.0
 11
0.0419291338582677
 21
0.5211023622047244
 31
0.0
  0
LINE
  5
DC
330
21
100
AcDbEntity
  8
0
100
AcDbLine
 10
0.0419291338582677
 20
0.5211023622047244
 30
0.0
 11
0.0378740157480315
 21
0.5286614173228346
 31
0.0
  0
LINE
  5
DD
330
21
100
AcDbEntity
  8
0
100
AcDbLine
 10
0.0378740157480315
 20
0.5286614173228346
 30
0.0
 11
0.0335826771653543
 21
0.5361417322834647
 31
0.0
  0
LINE
  5
DE
330
21
100
AcDbEntity
  8
0
100
AcDbLine
 10
0.0335826771653543
 20
0.5361417322834647
 30
0.0
 11
0.0291338582677165
 21
0.5434645669291339
 31
0.0
  0
LINE
  5
DF
330
21
100
AcDbEntity
  8
0
100
AcDbLine
 10
0.0291338582677165
 20
0.5434645669291339
 30
0.0
 11
0.0244488188976378
 21
0.5506299212598425
 31
0.0
  0
LINE
  5
E0
330
21
100
AcDbEntity
  8
0
100
AcDbLine
 10
0.0244488188976378
 20
0.5506299212598425
 30
0.0
 11
-0.0244488188976378
 21
0.5506299212598425
 31
0.0
  0
LINE
  5
E1
330
21
100
AcDbEntity
  8
0
100
AcDbLine
 10
-0.0244488188976378
 20
0.5506299212598425
 30
0.0
 11
-0.0291338582677165
 21
0.5434645669291339
 31
0.0
  0
LINE
  5
E2
330
21
100
AcDbEntity
  8
0
100
AcDbLine
 10
-0.0291338582677165
 20
0.5434645669291339
 30
0.0
 11
-0.0335826771653543
 21
0.5361417322834647
 31
0.0
  0
LINE
  5
E3
330
21
100
AcDbEntity
  8
0
100
AcDbLine
 10
-0.0335826771653543
 20
0.5361417322834647
 30
0.0
 11
-0.0378740157480315
 21
0.5286614173228346
 31
0.0
  0
LINE
  5
E4
330
21
100
AcDbEntity
  8
0
100
AcDbLine
 10
-0.0378740157480315
 20
0.5286614173228346
 30
0.0
 11
-0.0419291338582677
 21
0.5211023622047244
 31
0.0
  0
LINE
  5
E5
330
21
100
AcDbEntity
  8
0
100
AcDbLine
 10
-0.0419291338582677
 20
0.5211023622047244
 30
0.0
 11
-0.045748031496063
 21
0.5134251968503937
 31
0.0
  0
LINE
  5
E6
330
21
100
AcDbEntity
  8
0
100
AcDbLine
 10
-0.045748031496063
 20
0.5134251968503937
 30
0.0
 11
-0.0492913385826772
 21
0.5055905511811024
 31
0.0
  0
LINE
  5
E7
330
21
100
AcDbEntity
  8
0
100
AcDbLine
 10
-0.0492913385826772
 20
0.5055905511811024
 30
0.0
 11
-0.0525590551181102
 21
0.4976771653543307
 31
0.0
  0
LINE
  5
E8
330
21
100
AcDbEntity
  8
0
100
AcDbLine
 10
-0.0525590551181102
 20
0.4976771653543307
 30
0.0
 11
-0.0555511811023622
 21
0.4896456692913386
 31
0.0
  0
LINE
  5
E9
330
21
100
AcDbEntity
  8
0
100
AcDbLine
 10
-0.0555511811023622
 20
0.4896456692913386
 30
0.0
 11
-0.0582283464566929
 21
0.4814566929133859
 31
0.0
  0
LINE
  5
EA
330
21
100
AcDbEntity
  8
0
100
AcDbLine
 10
-0.0582283464566929
 20
0.4814566929133859
 30
0.0
 11
-0.060511811023622
 21
0.4731889763779528
 31
0.0
  0
LINE
  5
EB
330
21
100
AcDbEntity
  8
0
100
AcDbLine
 10
-0.060511811023622
 20
0.4731889763779528
 30
0.0
 11
-0.0624015748031496
 21
0.4648425196850394
 31
0.0
  0
LINE
  5
EC
330
21
100
AcDbEntity
  8
0
100
AcDbLine
 10
-0.0624015748031496
 20
0.4648425196850394
 30
0.0
 11
-0.0638188976377953
 21
0.4563385826771654
 31
0.0
  0
LINE
  5
ED
330
21
100
AcDbEntity
  8
0
100
AcDbLine
 10
-0.0638188976377953
 20
0.4563385826771654
 30
0.0
 11
-0.0646456692913386
 21
0.4477952755905513
 31
0.0
  0
LINE
  5
EE
330
21
100
AcDbEntity
  8
0
100
AcDbLine
 10
-0.0646456692913386
 20
0.4477952755905513
 30
0.0
 11
-0.064488188976378
 21
0.4392519685039371
 31
0.0
  0
LINE
  5
EF
330
21
100
AcDbEntity
  8
0
100
AcDbLine
 10
-0.064488188976378
 20
0.4392519685039371
 30
0.0
 11
-0.0594094488188977
 21
0.4183858267716536
 31
0.0
  0
LINE
  5
F0
330
21
100
AcDbEntity
  8
0
100
AcDbLine
 10
-0.0594094488188977
 20
0.4183858267716536
 30
0.0
 11
-0.0590157480314961
 21
0.4007874015748032
 31
0.0
  0
LINE
  5
F1
330
21
100
AcDbEntity
  8
0
100
AcDbLine
 10
-0.0590157480314961
 20
0.4007874015748032
 30
0.0
 11
-0.0622047244094488
 21
0.3871653543307087
 31
0.0
  0
LINE
  5
F2
330
21
100
AcDbEntity
  8
0
100
AcDbLine
 10
-0.0622047244094488
 20
0.3871653543307087
 30
0.0
 11
-0.0681496062992126
 21
0.3780314960629921
 31
0.0
  0
LINE
  5
F3
330
21
100
AcDbEntity
  8
0
100
AcDbLine
 10
-0.0681496062992126
 20
0.3780314960629921
 30
0.0
 11
-0.0760236220472441
 21
0.3737007874015748
 31
0.0
  0
LINE
  5
F4
330
21
100
AcDbEntity
  8
0
100
AcDbLine
 10
-0.0760236220472441
 20
0.3737007874015748
 30
0.0
 11
-0.1209842519685039
 21
0.3616535433070866
 31
0.0
  0
LINE
  5
F5
330
21
100
AcDbEntity
  8
0
100
AcDbLine
 10
-0.1209842519685039
 20
0.3616535433070866
 30
0.0
 11
-0.13
 21
0.3614566929133858
 31
0.0
  0
LINE
  5
F6
330
21
100
AcDbEntity
  8
0
100
AcDbLine
 10
-0.13
 20
0.3614566929133858
 30
0.0
 11
-0.1397244094488189
 21
0.3664173228346457
 31
0.0
  0
LINE
  5
F7
330
21
100
AcDbEntity
  8
0
100
AcDbLine
 10
-0.1397244094488189
 20
0.3664173228346457
 30
0.0
 11
-0.1492913385826772
 21
0.3766141732283465
 31
0.0
  0
LINE
  5
F8
330
21
100
AcDbEntity
  8
0
100
AcDbLine
 10
-0.1492913385826772
 20
0.3766141732283465
 30
0.0
 11
-0.157755905511811
 21
0.3920472440944882
 31
0.0
  0
LINE
  5
F9
330
21
100
AcDbEntity
  8
0
100
AcDbLine
 10
-0.157755905511811
 20
0.3920472440944882
 30
0.0
 11
-0.1637795275590551
 21
0.4126377952755905
 31
0.0
  0
LINE
  5
FA
330
21
100
AcDbEntity
  8
0
100
AcDbLine
 10
-0.1637795275590551
 20
0.4126377952755905
 30
0.0
 11
-0.1679527559055118
 21
0.4201181102362204
 31
0.0
  0
LINE
  5
FB
330
21
100
AcDbEntity
  8
0
100
AcDbLine
 10
-0.1679527559055118
 20
0.4201181102362204
 30
0.0
 11
-0.1729133858267716
 21
0.4271259842519685
 31
0.0
  0
LINE
  5
FC
330
21
100
AcDbEntity
  8
0
100
AcDbLine
 10
-0.1729133858267716
 20
0.4271259842519685
 30
0.0
 11
-0.1783464566929134
 21
0.4337401574803151
 31
0.0
  0
LINE
  5
FD
330
21
100
AcDbEntity
  8
0
100
AcDbLine
 10
-0.1783464566929134
 20
0.4337401574803151
 30
0.0
 11
-0.1841732283464567
 21
0.4400787401574803
 31
0.0
  0
LINE
  5
FE
330
21
100
AcDbEntity
  8
0
100
AcDbLine
 10
-0.1841732283464567
 20
0.4400787401574803
 30
0.0
 11
-0.1903149606299212
 21
0.4460629921259843
 31
0.0
  0
LINE
  5
FF
330
21
100
AcDbEntity
  8
0
100
AcDbLine
 10
-0.1903149606299212
 20
0.4460629921259843
 30
0.0
 11
-0.1966929133858268
 21
0.4518110236220473
 31
0.0
  0
LINE
  5
100
330
21
100
AcDbEntity
  8
0
100
AcDbLine
 10
-0.1966929133858268
 20
0.4518110236220473
 30
0.0
 11
-0.2033070866141732
 21
0.4572834645669292
 31
0.0
  0
LINE
  5
101
330
21
100
AcDbEntity
  8
0
100
AcDbLine
 10
-0.2033070866141732
 20
0.4572834645669292
 30
0.0
 11
-0.2101181102362205
 21
0.4625196850393701
 31
0.0
  0
LINE
  5
102
330
21
100
AcDbEntity
  8
0
100
AcDbLine
 10
-0.2101181102362205
 20
0.4625196850393701
 30
0.0
 11
-0.2170866141732283
 21
0.4675196850393701
 31
0.0
  0
LINE
  5
103
330
21
100
AcDbEntity
  8
0
100
AcDbLine
 10
-0.2170866141732283
 20
0.4675196850393701
 30
0.0
 11
-0.224251968503937
 21
0.4722440944881889
 31
0.0
  0
LINE
  5
104
330
21
100
AcDbEntity
  8
0
100
AcDbLine
 10
-0.224251968503937
 20
0.4722440944881889
 30
0.0
 11
-0.2315354330708661
 21
0.4767716535433071
 31
0.0
  0
LINE
  5
105
330
21
100
AcDbEntity
  8
0
100
AcDbLine
 10
-0.2315354330708661
 20
0.4767716535433071
 30
0.0
 11
-0.2389763779527559
 21
0.4811023622047245
 31
0.0
  0
LINE
  5
106
330
21
100
AcDbEntity
  8
0
100
AcDbLine
 10
-0.2389763779527559
 20
0.4811023622047245
 30
0.0
 11
-0.246496062992126
 21
0.4851968503937009
 31
0.0
  0
LINE
  5
107
330
21
100
AcDbEntity
  8
0
100
AcDbLine
 10
-0.246496062992126
 20
0.4851968503937009
 30
0.0
 11
-0.2541732283464567
 21
0.4890944881889764
 31
0.0
  0
LINE
  5
108
330
21
100
AcDbEntity
  8
0
100
AcDbLine
 10
-0.2541732283464567
 20
0.4890944881889764
 30
0.0
 11
-0.296496062992126
 21
0.4646456692913386
 31
0.0
  0
LINE
  5
109
330
21
100
AcDbEntity
  8
0
100
AcDbLine
 10
-0.296496062992126
 20
0.4646456692913386
 30
0.0
 11
-0.2969291338582678
 21
0.4560629921259844
 31
0.0
  0
LINE
  5
10A
330
21
100
AcDbEntity
  8
0
100
AcDbLine
 10
-0.2969291338582678
 20
0.4560629921259844
 30
0.0
 11
-0.2971653543307086
 21
0.4475196850393701
 31
0.0
  0
LINE
  5
10B
330
21
100
AcDbEntity
  8
0
100
AcDbLine
 10
-0.2971653543307086
 20
0.4475196850393701
 30
0.0
 11
-0.2971259842519685
 21
0.4388976377952756
 31
0.0
  0
LINE
  5
10C
330
21
100
AcDbEntity
  8
0
100
AcDbLine
 10
-0.2971259842519685
 20
0.4388976377952756
 30
0.0
 11
-0.2968503937007874
 21
0.4303543307086614
 31
0.0
  0
LINE
  5
10D
330
21
100
AcDbEntity
  8
0
100
AcDbLine
 10
-0.2968503937007874
 20
0.4303543307086614
 30
0.0
 11
-0.2962992125984252
 21
0.4217716535433071
 31
0.0
  0
LINE
  5
10E
330
21
100
AcDbEntity
  8
0
100
AcDbLine
 10
-0.2962992125984252
 20
0.4217716535433071
 30
0.0
 11
-0.2955118110236221
 21
0.4132283464566929
 31
0.0
  0
LINE
  5
10F
330
21
100
AcDbEntity
  8
0
100
AcDbLine
 10
-0.2955118110236221
 20
0.4132283464566929
 30
0.0
 11
-0.2943700787401575
 21
0.4047244094488189
 31
0.0
  0
LINE
  5
110
330
21
100
AcDbEntity
  8
0
100
AcDbLine
 10
-0.2943700787401575
 20
0.4047244094488189
 30
0.0
 11
-0.2929527559055118
 21
0.396259842519685
 31
0.0
  0
LINE
  5
111
330
21
100
AcDbEntity
  8
0
100
AcDbLine
 10
-0.2929527559055118
 20
0.396259842519685
 30
0.0
 11
-0.2911417322834646
 21
0.3878346456692914
 31
0.0
  0
LINE
  5
112
330
21
100
AcDbEntity
  8
0
100
AcDbLine
 10
-0.2911417322834646
 20
0.3878346456692914
 30
0.0
 11
-0.2890157480314961
 21
0.3795275590551181
 31
0.0
  0
LINE
  5
113
330
21
100
AcDbEntity
  8
0
100
AcDbLine
 10
-0.2890157480314961
 20
0.3795275590551181
 30
0.0
 11
-0.2864566929133858
 21
0.3713385826771653
 31
0.0
  0
LINE
  5
114
330
21
100
AcDbEntity
  8
0
100
AcDbLine
 10
-0.2864566929133858
 20
0.3713385826771653
 30
0.0
 11
-0.2834645669291338
 21
0.3633070866141732
 31
0.0
  0
LINE
  5
115
330
21
100
AcDbEntity
  8
0
100
AcDbLine
 10
-0.2834645669291338
 20
0.3633070866141732
 30
0.0
 11
-0.2798818897637795
 21
0.355511811023622
 31
0.0
  0
LINE
  5
116
330
21
100
AcDbEntity
  8
0
100
AcDbLine
 10
-0.2798818897637795
 20
0.355511811023622
 30
0.0
 11
-0.2754724409448819
 21
0.3481496062992126
 31
0.0
  0
LINE
  5
117
330
21
100
AcDbEntity
  8
0
100
AcDbLine
 10
-0.2754724409448819
 20
0.3481496062992126
 30
0.0
 11
-0.2606299212598425
 21
0.3326377952755906
 31
0.0
  0
LINE
  5
118
330
21
100
AcDbEntity
  8
0
100
AcDbLine
 10
-0.2606299212598425
 20
0.3326377952755906
 30
0.0
 11
-0.2514960629921259
 21
0.3175984251968504
 31
0.0
  0
LINE
  5
119
330
21
100
AcDbEntity
  8
0
100
AcDbLine
 10
-0.2514960629921259
 20
0.3175984251968504
 30
0.0
 11
-0.2474409448818898
 21
0.3042125984251969
 31
0.0
  0
LINE
  5
11A
330
21
100
AcDbEntity
  8
0
100
AcDbLine
 10
-0.2474409448818898
 20
0.3042125984251969
 30
0.0
 11
-0.2480314960629921
 21
0.2933070866141732
 31
0.0
  0
LINE
  5
11B
330
21
100
AcDbEntity
  8
0
100
AcDbLine
 10
-0.2480314960629921
 20
0.2933070866141732
 30
0.0
 11
-0.2526771653543307
 21
0.2855905511811023
 31
0.0
  0
LINE
  5
11C
330
21
100
AcDbEntity
  8
0
100
AcDbLine
 10
-0.2526771653543307
 20
0.2855905511811023
 30
0.0
 11
-0.2855905511811023
 21
0.2526771653543307
 31
0.0
  0
LINE
  5
11D
330
21
100
AcDbEntity
  8
0
100
AcDbLine
 10
-0.2855905511811023
 20
0.2526771653543307
 30
0.0
 11
-0.2933070866141732
 21
0.2480314960629921
 31
0.0
  0
LINE
  5
11E
330
21
100
AcDbEntity
  8
0
100
AcDbLine
 10
-0.2933070866141732
 20
0.2480314960629921
 30
0.0
 11
-0.3042125984251969
 21
0.2474409448818898
 31
0.0
  0
LINE
  5
11F
330
21
100
AcDbEntity
  8
0
100
AcDbLine
 10
-0.3042125984251969
 20
0.2474409448818898
 30
0.0
 11
-0.3175984251968504
 21
0.2514960629921259
 31
0.0
  0
LINE
  5
120
330
21
100
AcDbEntity
  8
0
100
AcDbLine
 10
-0.3175984251968504
 20
0.2514960629921259
 30
0.0
 11
-0.3326377952755906
 21
0.2606299212598425
 31
0.0
  0
LINE
  5
121
330
21
100
AcDbEntity
  8
0
100
AcDbLine
 10
-0.3326377952755906
 20
0.2606299212598425
 30
0.0
 11
-0.3481496062992126
 21
0.2754724409448819
 31
0.0
  0
LINE
  5
122
330
21
100
AcDbEntity
  8
0
100
AcDbLine
 10
-0.3481496062992126
 20
0.2754724409448819
 30
0.0
 11
-0.355511811023622
 21
0.2798818897637795
 31
0.0
  0
LINE
  5
123
330
21
100
AcDbEntity
  8
0
100
AcDbLine
 10
-0.355511811023622
 20
0.2798818897637795
 30
0.0
 11
-0.3633070866141732
 21
0.2834645669291338
 31
0.0
  0
LINE
  5
124
330
21
100
AcDbEntity
  8
0
100
AcDbLine
 10
-0.3633070866141732
 20
0.2834645669291338
 30
0.0
 11
-0.3713385826771653
 21
0.2864566929133858
 31
0.0
  0
LINE
  5
125
330
21
100
AcDbEntity
  8
0
100
AcDbLine
 10
-0.3713385826771653
 20
0.2864566929133858
 30
0.0
 11
-0.3795275590551181
 21
0.2890157480314961
 31
0.0
  0
LINE
  5
126
330
21
100
AcDbEntity
  8
0
100
AcDbLine
 10
-0.3795275590551181
 20
0.2890157480314961
 30
0.0
 11
-0.3878346456692914
 21
0.2911417322834646
 31
0.0
  0
LINE
  5
127
330
21
100
AcDbEntity
  8
0
100
AcDbLine
 10
-0.3878346456692914
 20
0.2911417322834646
 30
0.0
 11
-0.396259842519685
 21
0.2929527559055118
 31
0.0
  0
LINE
  5
128
330
21
100
AcDbEntity
  8
0
100
AcDbLine
 10
-0.396259842519685
 20
0.2929527559055118
 30
0.0
 11
-0.4047244094488189
 21
0.2943700787401575
 31
0.0
  0
LINE
  5
129
330
21
100
AcDbEntity
  8
0
100
AcDbLine
 10
-0.4047244094488189
 20
0.2943700787401575
 30
0.0
 11
-0.4132283464566929
 21
0.2955118110236221
 31
0.0
  0
LINE
  5
12A
330
21
100
AcDbEntity
  8
0
100
AcDbLine
 10
-0.4132283464566929
 20
0.2955118110236221
 30
0.0
 11
-0.4217716535433071
 21
0.2962992125984252
 31
0.0
  0
LINE
  5
12B
330
21
100
AcDbEntity
  8
0
100
AcDbLine
 10
-0.4217716535433071
 20
0.2962992125984252
 30
0.0
 11
-0.4303543307086614
 21
0.2968503937007874
 31
0.0
  0
LINE
  5
12C
330
21
100
AcDbEntity
  8
0
100
AcDbLine
 10
-0.4303543307086614
 20
0.2968503937007874
 30
0.0
 11
-0.4388976377952756
 21
0.2971259842519685
 31
0.0
  0
LINE
  5
12D
330
21
100
AcDbEntity
  8
0
100
AcDbLine
 10
-0.4388976377952756
 20
0.2971259842519685
 30
0.0
 11
-0.4475196850393701
 21
0.2971653543307086
 31
0.0
  0
LINE
  5
12E
330
21
100
AcDbEntity
  8
0
100
AcDbLine
 10
-0.4475196850393701
 20
0.2971653543307086
 30
0.0
 11
-0.4560629921259844
 21
0.2969291338582678
 31
0.0
  0
LINE
  5
12F
330
21
100
AcDbEntity
  8
0
100
AcDbLine
 10
-0.4560629921259844
 20
0.2969291338582678
 30
0.0
 11
-0.4646456692913386
 21
0.296496062992126
 31
0.0
  0
LINE
  5
130
330
21
100
AcDbEntity
  8
0
100
AcDbLine
 10
-0.4646456692913386
 20
0.296496062992126
 30
0.0
 11
-0.4890944881889764
 21
0.2541732283464567
 31
0.0
  0
LINE
  5
131
330
21
100
AcDbEntity
  8
0
100
AcDbLine
 10
-0.4890944881889764
 20
0.2541732283464567
 30
0.0
 11
-0.4851968503937009
 21
0.246496062992126
 31
0.0
  0
LINE
  5
132
330
21
100
AcDbEntity
  8
0
100
AcDbLine
 10
-0.4851968503937009
 20
0.246496062992126
 30
0.0
 11
-0.4811023622047245
 21
0.2389763779527559
 31
0.0
  0
LINE
  5
133
330
21
100
AcDbEntity
  8
0
100
AcDbLine
 10
-0.4811023622047245
 20
0.2389763779527559
 30
0.0
 11
-0.4767716535433071
 21
0.2315354330708661
 31
0.0
  0
LINE
  5
134
330
21
100
AcDbEntity
  8
0
100
AcDbLine
 10
-0.4767716535433071
 20
0.2315354330708661
 30
0.0
 11
-0.4722440944881889
 21
0.224251968503937
 31
0.0
  0
LINE
  5
135
330
21
100
AcDbEntity
  8
0
100
AcDbLine
 10
-0.4722440944881889
 20
0.224251968503937
 30
0.0
 11
-0.4675196850393701
 21
0.2170866141732283
 31
0.0
  0
LINE
  5
136
330
21
100
AcDbEntity
  8
0
100
AcDbLine
 10
-0.4675196850393701
 20
0.2170866141732283
 30
0.0
 11
-0.4625196850393701
 21
0.2101181102362205
 31
0.0
  0
LINE
  5
137
330
21
100
AcDbEntity
  8
0
100
AcDbLine
 10
-0.4625196850393701
 20
0.2101181102362205
 30
0.0
 11
-0.4572834645669292
 21
0.2033070866141732
 31
0.0
  0
LINE
  5
138
330
21
100
AcDbEntity
  8
0
100
AcDbLine
 10
-0.4572834645669292
 20
0.2033070866141732
 30
0.0
 11
-0.4518110236220473
 21
0.1966929133858268
 31
0.0
  0
LINE
  5
139
330
21
100
AcDbEntity
  8
0
100
AcDbLine
 10
-0.4518110236220473
 20
0.1966929133858268
 30
0.0
 11
-0.4460629921259843
 21
0.1903149606299212
 31
0.0
  0
LINE
  5
13A
330
21
100
AcDbEntity
  8
0
100
AcDbLine
 10
-0.4460629921259843
 20
0.1903149606299212
 30
0.0
 11
-0.4400787401574803
 21
0.1841732283464567
 31
0.0
  0
LINE
  5
13B
330
21
100
AcDbEntity
  8
0
100
AcDbLine
 10
-0.4400787401574803
 20
0.1841732283464567
 30
0.0
 11
-0.4337401574803151
 21
0.1783464566929134
 31
0.0
  0
LINE
  5
13C
330
21
100
AcDbEntity
  8
0
100
AcDbLine
 10
-0.4337401574803151
 20
0.1783464566929134
 30
0.0
 11
-0.4271259842519685
 21
0.1729133858267716
 31
0.0
  0
LINE
  5
13D
330
21
100
AcDbEntity
  8
0
100
AcDbLine
 10
-0.4271259842519685
 20
0.1729133858267716
 30
0.0
 11
-0.4201181102362204
 21
0.1679527559055118
 31
0.0
  0
LINE
  5
13E
330
21
100
AcDbEntity
  8
0
100
AcDbLine
 10
-0.4201181102362204
 20
0.1679527559055118
 30
0.0
 11
-0.4126377952755905
 21
0.1637795275590551
 31
0.0
  0
LINE
  5
13F
330
21
100
AcDbEntity
  8
0
100
AcDbLine
 10
-0.4126377952755905
 20
0.1637795275590551
 30
0.0
 11
-0.3920472440944882
 21
0.157755905511811
 31
0.0
  0
LINE
  5
140
330
21
100
AcDbEntity
  8
0
100
AcDbLine
 10
-0.3920472440944882
 20
0.157755905511811
 30
0.0
 11
-0.3766141732283465
 21
0.1492913385826772
 31
0.0
  0
LINE
  5
141
330
21
100
AcDbEntity
  8
0
100
AcDbLine
 10
-0.3766141732283465
 20
0.1492913385826772
 30
0.0
 11
-0.3664173228346457
 21
0.1397244094488189
 31
0.0
  0
LINE
  5
142
330
21
100
AcDbEntity
  8
0
100
AcDbLine
 10
-0.3664173228346457
 20
0.1397244094488189
 30
0.0
 11
-0.3614566929133858
 21
0.13
 31
0.0
  0
LINE
  5
143
330
21
100
AcDbEntity
  8
0
100
AcDbLine
 10
-0.3614566929133858
 20
0.13
 30
0.0
 11
-0.3616535433070866
 21
0.1209842519685039
 31
0.0
  0
LINE
  5
144
330
21
100
AcDbEntity
  8
0
100
AcDbLine
 10
-0.3616535433070866
 20
0.1209842519685039
 30
0.0
 11
-0.3737007874015748
 21
0.0760236220472441
 31
0.0
  0
LINE
  5
145
330
21
100
AcDbEntity
  8
0
100
AcDbLine
 10
-0.3737007874015748
 20
0.0760236220472441
 30
0.0
 11
-0.3780314960629921
 21
0.0681496062992126
 31
0.0
  0
LINE
  5
146
330
21
100
AcDbEntity
  8
0
100
AcDbLine
 10
-0.3780314960629921
 20
0.0681496062992126
 30
0.0
 11
-0.3871653543307087
 21
0.0622047244094488
 31
0.0
  0
LINE
  5
147
330
21
100
AcDbEntity
  8
0
100
AcDbLine
 10
-0.3871653543307087
 20
0.0622047244094488
 30
0.0
 11
-0.4007874015748032
 21
0.0590157480314961
 31
0.0
  0
LINE
  5
148
330
21
100
AcDbEntity
  8
0
100
AcDbLine
 10
-0.4007874015748032
 20
0.0590157480314961
 30
0.0
 11
-0.4183858267716536
 21
0.0594094488188977
 31
0.0
  0
LINE
  5
149
330
21
100
AcDbEntity
  8
0
100
AcDbLine
 10
-0.4183858267716536
 20
0.0594094488188977
 30
0.0
 11
-0.4392519685039371
 21
0.064488188976378
 31
0.0
  0
LINE
  5
14A
330
21
100
AcDbEntity
  8
0
100
AcDbLine
 10
-0.4392519685039371
 20
0.064488188976378
 30
0.0
 11
-0.4477952755905513
 21
0.0646456692913386
 31
0.0
  0
LINE
  5
14B
330
21
100
AcDbEntity
  8
0
100
AcDbLine
 10
-0.4477952755905513
 20
0.0646456692913386
 30
0.0
 11
-0.4563385826771654
 21
0.0638188976377953
 31
0.0
  0
LINE
  5
14C
330
21
100
AcDbEntity
  8
0
100
AcDbLine
 10
-0.4563385826771654
 20
0.0638188976377953
 30
0.0
 11
-0.4648425196850394
 21
0.0624015748031496
 31
0.0
  0
LINE
  5
14D
330
21
100
AcDbEntity
  8
0
100
AcDbLine
 10
-0.4648425196850394
 20
0.0624015748031496
 30
0.0
 11
-0.4731889763779528
 21
0.060511811023622
 31
0.0
  0
LINE
  5
14E
330
21
100
AcDbEntity
  8
0
100
AcDbLine
 10
-0.4731889763779528
 20
0.060511811023622
 30
0.0
 11
-0.4814566929133859
 21
0.0582283464566929
 31
0.0
  0
LINE
  5
14F
330
21
100
AcDbEntity
  8
0
100
AcDbLine
 10
-0.4814566929133859
 20
0.0582283464566929
 30
0.0
 11
-0.4896456692913386
 21
0.0555511811023622
 31
0.0
  0
LINE
  5
150
330
21
100
AcDbEntity
  8
0
100
AcDbLine
 10
-0.4896456692913386
 20
0.0555511811023622
 30
0.0
 11
-0.4976771653543307
 21
0.0525590551181102
 31
0.0
  0
LINE
  5
151
330
21
100
AcDbEntity
  8
0
100
AcDbLine
 10
-0.4976771653543307
 20
0.0525590551181102
 30
0.0
 11
-0.5055905511811024
 21
0.0492913385826772
 31
0.0
  0
LINE
  5
152
330
21
100
AcDbEntity
  8
0
100
AcDbLine
 10
-0.5055905511811024
 20
0.0492913385826772
 30
0.0
 11
-0.5134251968503937
 21
0.045748031496063
 31
0.0
  0
LINE
  5
153
330
21
100
AcDbEntity
  8
0
100
AcDbLine
 10
-0.5134251968503937
 20
0.045748031496063
 30
0.0
 11
-0.5211023622047244
 21
0.0419291338582677
 31
0.0
  0
LINE
  5
154
330
21
100
AcDbEntity
  8
0
100
AcDbLine
 10
-0.5211023622047244
 20
0.0419291338582677
 30
0.0
 11
-0.5286614173228346
 21
0.0378740157480315
 31
0.0
  0
LINE
  5
155
330
21
100
AcDbEntity
  8
0
100
AcDbLine
 10
-0.5286614173228346
 20
0.0378740157480315
 30
0.0
 11
-0.5361417322834647
 21
0.0335826771653543
 31
0.0
  0
LINE
  5
156
330
21
100
AcDbEntity
  8
0
100
AcDbLine
 10
-0.5361417322834647
 20
0.0335826771653543
 30
0.0
 11
-0.5434645669291339
 21
0.0291338582677165
 31
0.0
  0
LINE
  5
157
330
21
100
AcDbEntity
  8
0
100
AcDbLine
 10
-0.5434645669291339
 20
0.0291338582677165
 30
0.0
 11
-0.5506299212598425
 21
0.0244488188976378
 31
0.0
  0
LINE
  5
158
330
21
100
AcDbEntity
  8
0
100
AcDbLine
 10
-0.5506299212598425
 20
0.0244488188976378
 30
0.0
 11
-0.5506299212598425
 21
-0.0244488188976378
 31
0.0
  0
LINE
  5
159
330
21
100
AcDbEntity
  8
0
100
AcDbLine
 10
-0.5506299212598425
 20
-0.0244488188976378
 30
0.0
 11
-0.5434645669291339
 21
-0.0291338582677165
 31
0.0
  0
LINE
  5
15A
330
21
100
AcDbEntity
  8
0
100
AcDbLine
 10
-0.5434645669291339
 20
-0.0291338582677165
 30
0.0
 11
-0.5361417322834647
 21
-0.0335826771653543
 31
0.0
  0
LINE
  5
15B
330
21
100
AcDbEntity
  8
0
100
AcDbLine
 10
-0.5361417322834647
 20
-0.0335826771653543
 30
0.0
 11
-0.5286614173228346
 21
-0.0378740157480315
 31
0.0
  0
LINE
  5
15C
330
21
100
AcDbEntity
  8
0
100
AcDbLine
 10
-0.5286614173228346
 20
-0.0378740157480315
 30
0.0
 11
-0.5211023622047244
 21
-0.0419291338582677
 31
0.0
  0
LINE
  5
15D
330
21
100
AcDbEntity
  8
0
100
AcDbLine
 10
-0.5211023622047244
 20
-0.0419291338582677
 30
0.0
 11
-0.5134251968503937
 21
-0.045748031496063
 31
0.0
  0
LINE
  5
15E
330
21
100
AcDbEntity
  8
0
100
AcDbLine
 10
-0.5134251968503937
 20
-0.045748031496063
 30
0.0
 11
-0.5055905511811024
 21
-0.0492913385826772
 31
0.0
  0
LINE
  5
15F
330
21
100
AcDbEntity
  8
0
100
AcDbLine
 10
-0.5055905511811024
 20
-0.0492913385826772
 30
0.0
 11
-0.4976771653543307
 21
-0.0525590551181102
 31
0.0
  0
LINE
  5
160
330
21
100
AcDbEntity
  8
0
100
AcDbLine
 10
-0.4976771653543307
 20
-0.0525590551181102
 30
0.0
 11
-0.4896456692913386
 21
-0.0555511811023622
 31
0.0
  0
LINE
  5
161
330
21
100
AcDbEntity
  8
0
100
AcDbLine
 10
-0.4896456692913386
 20
-0.0555511811023622
 30
0.0
 11
-0.4814566929133859
 21
-0.0582283464566929
 31
0.0
  0
LINE
  5
162
330
21
100
AcDbEntity
  8
0
100
AcDbLine
 10
-0.4814566929133859
 20
-0.0582283464566929
 30
0.0
 11
-0.4731889763779528
 21
-0.060511811023622
 31
0.0
  0
LINE
  5
163
330
21
100
AcDbEntity
  8
0
100
AcDbLine
 10
-0.4731889763779528
 20
-0.060511811023622
 30
0.0
 11
-0.4648425196850394
 21
-0.0624015748031496
 31
0.0
  0
LINE
  5
164
330
21
100
AcDbEntity
  8
0
100
AcDbLine
 10
-0.4648425196850394
 20
-0.0624015748031496
 30
0.0
 11
-0.4563385826771654
 21
-0.0638188976377953
 31
0.0
  0
LINE
  5
165
330
21
100
AcDbEntity
  8
0
100
AcDbLine
 10
-0.4563385826771654
 20
-0.0638188976377953
 30
0.0
 11
-0.4477952755905513
 21
-0.0646456692913386
 31
0.0
  0
LINE
  5
166
330
21
100
AcDbEntity
  8
0
100
AcDbLine
 10
-0.4477952755905513
 20
-0.0646456692913386
 30
0.0
 11
-0.4392519685039371
 21
-0.064488188976378
 31
0.0
  0
LINE
  5
167
330
21
100
AcDbEntity
  8
0
100
AcDbLine
 10
-0.4392519685039371
 20
-0.064488188976378
 30
0.0
 11
-0.4183858267716536
 21
-0.0594094488188977
 31
0.0
  0
LINE
  5
168
330
21
100
AcDbEntity
  8
0
100
AcDbLine
 10
-0.4183858267716536
 20
-0.0594094488188977
 30
0.0
 11
-0.4007874015748032
 21
-0.0590157480314961
 31
0.0
  0
LINE
  5
169
330
21
100
AcDbEntity
  8
0
100
AcDbLine
 10
-0.4007874015748032
 20
-0.0590157480314961
 30
0.0
 11
-0.3871653543307087
 21
-0.0622047244094488
 31
0.0
  0
LINE
  5
16A
330
21
100
AcDbEntity
  8
0
100
AcDbLine
 10
-0.3871653543307087
 20
-0.0622047244094488
 30
0.0
 11
-0.3780314960629921
 21
-0.0681496062992126
 31
0.0
  0
LINE
  5
16B
330
21
100
AcDbEntity
  8
0
100
AcDbLine
 10
-0.3780314960629921
 20
-0.0681496062992126
 30
0.0
 11
-0.3737007874015748
 21
-0.0760236220472441
 31
0.0
  0
LINE
  5
16C
330
21
100
AcDbEntity
  8
0
100
AcDbLine
 10
-0.3737007874015748
 20
-0.0760236220472441
 30
0.0
 11
-0.3616535433070866
 21
-0.1209842519685039
 31
0.0
  0
LINE
  5
16D
330
21
100
AcDbEntity
  8
0
100
AcDbLine
 10
-0.3616535433070866
 20
-0.1209842519685039
 30
0.0
 11
-0.3614566929133858
 21
-0.13
 31
0.0
  0
LINE
  5
16E
330
21
100
AcDbEntity
  8
0
100
AcDbLine
 10
-0.3614566929133858
 20
-0.13
 30
0.0
 11
-0.3664173228346457
 21
-0.1397244094488189
 31
0.0
  0
LINE
  5
16F
330
21
100
AcDbEntity
  8
0
100
AcDbLine
 10
-0.3664173228346457
 20
-0.1397244094488189
 30
0.0
 11
-0.3766141732283465
 21
-0.1492913385826772
 31
0.0
  0
LINE
  5
170
330
21
100
AcDbEntity
  8
0
100
AcDbLine
 10
-0.3766141732283465
 20
-0.1492913385826772
 30
0.0
 11
-0.3920472440944882
 21
-0.157755905511811
 31
0.0
  0
LINE
  5
171
330
21
100
AcDbEntity
  8
0
100
AcDbLine
 10
-0.3920472440944882
 20
-0.157755905511811
 30
0.0
 11
-0.4126377952755905
 21
-0.1637795275590551
 31
0.0
  0
LINE
  5
172
330
21
100
AcDbEntity
  8
0
100
AcDbLine
 10
-0.4126377952755905
 20
-0.1637795275590551
 30
0.0
 11
-0.4201181102362204
 21
-0.1679527559055118
 31
0.0
  0
LINE
  5
173
330
21
100
AcDbEntity
  8
0
100
AcDbLine
 10
-0.4201181102362204
 20
-0.1679527559055118
 30
0.0
 11
-0.4271259842519685
 21
-0.1729133858267716
 31
0.0
  0
LINE
  5
174
330
21
100
AcDbEntity
  8
0
100
AcDbLine
 10
-0.4271259842519685
 20
-0.1729133858267716
 30
0.0
 11
-0.4337401574803151
 21
-0.1783464566929134
 31
0.0
  0
LINE
  5
175
330
21
100
AcDbEntity
  8
0
100
AcDbLine
 10
-0.4337401574803151
 20
-0.1783464566929134
 30
0.0
 11
-0.4400787401574803
 21
-0.1841732283464567
 31
0.0
  0
LINE
  5
176
330
21
100
AcDbEntity
  8
0
100
AcDbLine
 10
-0.4400787401574803
 20
-0.1841732283464567
 30
0.0
 11
-0.4460629921259843
 21
-0.1903149606299212
 31
0.0
  0
LINE
  5
177
330
21
100
AcDbEntity
  8
0
100
AcDbLine
 10
-0.4460629921259843
 20
-0.1903149606299212
 30
0.0
 11
-0.4518110236220473
 21
-0.1966929133858268
 31
0.0
  0
LINE
  5
178
330
21
100
AcDbEntity
  8
0
100
AcDbLine
 10
-0.4518110236220473
 20
-0.1966929133858268
 30
0.0
 11
-0.4572834645669292
 21
-0.2033070866141732
 31
0.0
  0
LINE
  5
179
330
21
100
AcDbEntity
  8
0
100
AcDbLine
 10
-0.4572834645669292
 20
-0.2033070866141732
 30
0.0
 11
-0.4625196850393701
 21
-0.2101181102362205
 31
0.0
  0
LINE
  5
17A
330
21
100
AcDbEntity
  8
0
100
AcDbLine
 10
-0.4625196850393701
 20
-0.2101181102362205
 30
0.0
 11
-0.4675196850393701
 21
-0.2170866141732283
 31
0.0
  0
LINE
  5
17B
330
21
100
AcDbEntity
  8
0
100
AcDbLine
 10
-0.4675196850393701
 20
-0.2170866141732283
 30
0.0
 11
-0.4722440944881889
 21
-0.224251968503937
 31
0.0
  0
LINE
  5
17C
330
21
100
AcDbEntity
  8
0
100
AcDbLine
 10
-0.4722440944881889
 20
-0.224251968503937
 30
0.0
 11
-0.4767716535433071
 21
-0.2315354330708661
 31
0.0
  0
LINE
  5
17D
330
21
100
AcDbEntity
  8
0
100
AcDbLine
 10
-0.4767716535433071
 20
-0.2315354330708661
 30
0.0
 11
-0.4811023622047245
 21
-0.2389763779527559
 31
0.0
  0
LINE
  5
17E
330
21
100
AcDbEntity
  8
0
100
AcDbLine
 10
-0.4811023622047245
 20
-0.2389763779527559
 30
0.0
 11
-0.4851968503937009
 21
-0.246496062992126
 31
0.0
  0
LINE
  5
17F
330
21
100
AcDbEntity
  8
0
100
AcDbLine
 10
-0.4851968503937009
 20
-0.246496062992126
 30
0.0
 11
-0.4890944881889764
 21
-0.2541732283464567
 31
0.0
  0
LINE
  5
180
330
21
100
AcDbEntity
  8
0
100
AcDbLine
 10
-0.4890944881889764
 20
-0.2541732283464567
 30
0.0
 11
-0.4646456692913386
 21
-0.296496062992126
 31
0.0
  0
LINE
  5
181
330
21
100
AcDbEntity
  8
0
100
AcDbLine
 10
-0.4646456692913386
 20
-0.296496062992126
 30
0.0
 11
-0.4560629921259844
 21
-0.2969291338582678
 31
0.0
  0
LINE
  5
182
330
21
100
AcDbEntity
  8
0
100
AcDbLine
 10
-0.4560629921259844
 20
-0.2969291338582678
 30
0.0
 11
-0.4475196850393701
 21
-0.2971653543307086
 31
0.0
  0
LINE
  5
183
330
21
100
AcDbEntity
  8
0
100
AcDbLine
 10
-0.4475196850393701
 20
-0.2971653543307086
 30
0.0
 11
-0.4388976377952756
 21
-0.2971259842519685
 31
0.0
  0
LINE
  5
184
330
21
100
AcDbEntity
  8
0
100
AcDbLine
 10
-0.4388976377952756
 20
-0.2971259842519685
 30
0.0
 11
-0.4303543307086614
 21
-0.2968503937007874
 31
0.0
  0
LINE
  5
185
330
21
100
AcDbEntity
  8
0
100
AcDbLine
 10
-0.4303543307086614
 20
-0.2968503937007874
 30
0.0
 11
-0.4217716535433071
 21
-0.2962992125984252
 31
0.0
  0
LINE
  5
186
330
21
100
AcDbEntity
  8
0
100
AcDbLine
 10
-0.4217716535433071
 20
-0.2962992125984252
 30
0.0
 11
-0.4132283464566929
 21
-0.2955118110236221
 31
0.0
  0
LINE
  5
187
330
21
100
AcDbEntity
  8
0
100
AcDbLine
 10
-0.4132283464566929
 20
-0.2955118110236221
 30
0.0
 11
-0.4047244094488189
 21
-0.2943700787401575
 31
0.0
  0
LINE
  5
188
330
21
100
AcDbEntity
  8
0
100
AcDbLine
 10
-0.4047244094488189
 20
-0.2943700787401575
 30
0.0
 11
-0.396259842519685
 21
-0.2929527559055118
 31
0.0
  0
LINE
  5
189
330
21
100
AcDbEntity
  8
0
100
AcDbLine
 10
-0.396259842519685
 20
-0.2929527559055118
 30
0.0
 11
-0.3878346456692914
 21
-0.2911417322834646
 31
0.0
  0
LINE
  5
18A
330
21
100
AcDbEntity
  8
0
100
AcDbLine
 10
-0.3878346456692914
 20
-0.2911417322834646
 30
0.0
 11
-0.3795275590551181
 21
-0.2890157480314961
 31
0.0
  0
LINE
  5
18B
330
21
100
AcDbEntity
  8
0
100
AcDbLine
 10
-0.3795275590551181
 20
-0.2890157480314961
 30
0.0
 11
-0.3713385826771653
 21
-0.2864566929133858
 31
0.0
  0
LINE
  5
18C
330
21
100
AcDbEntity
  8
0
100
AcDbLine
 10
-0.3713385826771653
 20
-0.2864566929133858
 30
0.0
 11
-0.3633070866141732
 21
-0.2834645669291338
 31
0.0
  0
LINE
  5
18D
330
21
100
AcDbEntity
  8
0
100
AcDbLine
 10
-0.3633070866141732
 20
-0.2834645669291338
 30
0.0
 11
-0.355511811023622
 21
-0.2798818897637795
 31
0.0
  0
LINE
  5
18E
330
21
100
AcDbEntity
  8
0
100
AcDbLine
 10
-0.355511811023622
 20
-0.2798818897637795
 30
0.0
 11
-0.3481496062992126
 21
-0.2754724409448819
 31
0.0
  0
LINE
  5
18F
330
21
100
AcDbEntity
  8
0
100
AcDbLine
 10
-0.3481496062992126
 20
-0.2754724409448819
 30
0.0
 11
-0.3326377952755906
 21
-0.2606299212598425
 31
0.0
  0
LINE
  5
190
330
21
100
AcDbEntity
  8
0
100
AcDbLine
 10
-0.3326377952755906
 20
-0.2606299212598425
 30
0.0
 11
-0.3175984251968504
 21
-0.2514960629921259
 31
0.0
  0
LINE
  5
191
330
21
100
AcDbEntity
  8
0
100
AcDbLine
 10
-0.3175984251968504
 20
-0.2514960629921259
 30
0.0
 11
-0.3042125984251969
 21
-0.2474409448818898
 31
0.0
  0
LINE
  5
192
330
21
100
AcDbEntity
  8
0
100
AcDbLine
 10
-0.3042125984251969
 20
-0.2474409448818898
 30
0.0
 11
-0.2933070866141732
 21
-0.2480314960629921
 31
0.0
  0
LINE
  5
193
330
21
100
AcDbEntity
  8
0
100
AcDbLine
 10
-0.2933070866141732
 20
-0.2480314960629921
 30
0.0
 11
-0.2855905511811023
 21
-0.2526771653543307
 31
0.0
  0
LINE
  5
194
330
21
100
AcDbEntity
  8
0
100
AcDbLine
 10
-0.2855905511811023
 20
-0.2526771653543307
 30
0.0
 11
-0.2526771653543307
 21
-0.2855905511811023
 31
0.0
  0
LINE
  5
195
330
21
100
AcDbEntity
  8
0
100
AcDbLine
 10
-0.2526771653543307
 20
-0.2855905511811023
 30
0.0
 11
-0.2480314960629921
 21
-0.2933070866141732
 31
0.0
  0
LINE
  5
196
330
21
100
AcDbEntity
  8
0
100
AcDbLine
 10
-0.2480314960629921
 20
-0.2933070866141732
 30
0.0
 11
-0.2474409448818898
 21
-0.3042125984251969
 31
0.0
  0
LINE
  5
197
330
21
100
AcDbEntity
  8
0
100
AcDbLine
 10
-0.2474409448818898
 20
-0.3042125984251969
 30
0.0
 11
-0.2514960629921259
 21
-0.3175984251968504
 31
0.0
  0
LINE
  5
198
330
21
100
AcDbEntity
  8
0
100
AcDbLine
 10
-0.2514960629921259
 20
-0.3175984251968504
 30
0.0
 11
-0.2606299212598425
 21
-0.3326377952755906
 31
0.0
  0
LINE
  5
199
330
21
100
AcDbEntity
  8
0
100
AcDbLine
 10
-0.2606299212598425
 20
-0.3326377952755906
 30
0.0
 11
-0.2754724409448819
 21
-0.3481496062992126
 31
0.0
  0
LINE
  5
19A
330
21
100
AcDbEntity
  8
0
100
AcDbLine
 10
-0.2754724409448819
 20
-0.3481496062992126
 30
0.0
 11
-0.2798818897637795
 21
-0.355511811023622
 31
0.0
  0
LINE
  5
19B
330
21
100
AcDbEntity
  8
0
100
AcDbLine
 10
-0.2798818897637795
 20
-0.355511811023622
 30
0.0
 11
-0.2834645669291338
 21
-0.3633070866141732
 31
0.0
  0
LINE
  5
19C
330
21
100
AcDbEntity
  8
0
100
AcDbLine
 10
-0.2834645669291338
 20
-0.3633070866141732
 30
0.0
 11
-0.2864566929133858
 21
-0.3713385826771653
 31
0.0
  0
LINE
  5
19D
330
21
100
AcDbEntity
  8
0
100
AcDbLine
 10
-0.2864566929133858
 20
-0.3713385826771653
 30
0.0
 11
-0.2890157480314961
 21
-0.3795275590551181
 31
0.0
  0
LINE
  5
19E
330
21
100
AcDbEntity
  8
0
100
AcDbLine
 10
-0.2890157480314961
 20
-0.3795275590551181
 30
0.0
 11
-0.2911417322834646
 21
-0.3878346456692914
 31
0.0
  0
LINE
  5
19F
330
21
100
AcDbEntity
  8
0
100
AcDbLine
 10
-0.2911417322834646
 20
-0.3878346456692914
 30
0.0
 11
-0.2929527559055118
 21
-0.396259842519685
 31
0.0
  0
LINE
  5
1A0
330
21
100
AcDbEntity
  8
0
100
AcDbLine
 10
-0.2929527559055118
 20
-0.396259842519685
 30
0.0
 11
-0.2943700787401575
 21
-0.4047244094488189
 31
0.0
  0
LINE
  5
1A1
330
21
100
AcDbEntity
  8
0
100
AcDbLine
 10
-0.2943700787401575
 20
-0.4047244094488189
 30
0.0
 11
-0.2955118110236221
 21
-0.4132283464566929
 31
0.0
  0
LINE
  5
1A2
330
21
100
AcDbEntity
  8
0
100
AcDbLine
 10
-0.2955118110236221
 20
-0.4132283464566929
 30
0.0
 11
-0.2962992125984252
 21
-0.4217716535433071
 31
0.0
  0
LINE
  5
1A3
330
21
100
AcDbEntity
  8
0
100
AcDbLine
 10
-0.2962992125984252
 20
-0.4217716535433071
 30
0.0
 11
-0.2968503937007874
 21
-0.4303543307086614
 31
0.0
  0
LINE
  5
1A4
330
21
100
AcDbEntity
  8
0
100
AcDbLine
 10
-0.2968503937007874
 20
-0.4303543307086614
 30
0.0
 11
-0.2971259842519685
 21
-0.4388976377952756
 31
0.0
  0
LINE
  5
1A5
330
21
100
AcDbEntity
  8
0
100
AcDbLine
 10
-0.2971259842519685
 20
-0.4388976377952756
 30
0.0
 11
-0.2971653543307086
 21
-0.4475196850393701
 31
0.0
  0
LINE
  5
1A6
330
21
100
AcDbEntity
  8
0
100
AcDbLine
 10
-0.2971653543307086
 20
-0.4475196850393701
 30
0.0
 11
-0.2969291338582678
 21
-0.4560629921259844
 31
0.0
  0
LINE
  5
1A7
330
21
100
AcDbEntity
  8
0
100
AcDbLine
 10
-0.2969291338582678
 20
-0.4560629921259844
 30
0.0
 11
-0.296496062992126
 21
-0.4646456692913386
 31
0.0
  0
LINE
  5
1A8
330
21
100
AcDbEntity
  8
0
100
AcDbLine
 10
-0.296496062992126
 20
-0.4646456692913386
 30
0.0
 11
-0.2541732283464567
 21
-0.4890944881889764
 31
0.0
  0
LINE
  5
1A9
330
21
100
AcDbEntity
  8
0
100
AcDbLine
 10
-0.2541732283464567
 20
-0.4890944881889764
 30
0.0
 11
-0.246496062992126
 21
-0.4851968503937009
 31
0.0
  0
LINE
  5
1AA
330
21
100
AcDbEntity
  8
0
100
AcDbLine
 10
-0.246496062992126
 20
-0.4851968503937009
 30
0.0
 11
-0.2389763779527559
 21
-0.4811023622047245
 31
0.0
  0
LINE
  5
1AB
330
21
100
AcDbEntity
  8
0
100
AcDbLine
 10
-0.2389763779527559
 20
-0.4811023622047245
 30
0.0
 11
-0.2315354330708661
 21
-0.4767716535433071
 31
0.0
  0
LINE
  5
1AC
330
21
100
AcDbEntity
  8
0
100
AcDbLine
 10
-0.2315354330708661
 20
-0.4767716535433071
 30
0.0
 11
-0.224251968503937
 21
-0.4722440944881889
 31
0.0
  0
LINE
  5
1AD
330
21
100
AcDbEntity
  8
0
100
AcDbLine
 10
-0.224251968503937
 20
-0.4722440944881889
 30
0.0
 11
-0.2170866141732283
 21
-0.4675196850393701
 31
0.0
  0
LINE
  5
1AE
330
21
100
AcDbEntity
  8
0
100
AcDbLine
 10
-0.2170866141732283
 20
-0.4675196850393701
 30
0.0
 11
-0.2101181102362205
 21
-0.4625196850393701
 31
0.0
  0
LINE
  5
1AF
330
21
100
AcDbEntity
  8
0
100
AcDbLine
 10
-0.2101181102362205
 20
-0.4625196850393701
 30
0.0
 11
-0.2033070866141732
 21
-0.4572834645669292
 31
0.0
  0
LINE
  5
1B0
330
21
100
AcDbEntity
  8
0
100
AcDbLine
 10
-0.2033070866141732
 20
-0.4572834645669292
 30
0.0
 11
-0.1966929133858268
 21
-0.4518110236220473
 31
0.0
  0
LINE
  5
1B1
330
21
100
AcDbEntity
  8
0
100
AcDbLine
 10
-0.1966929133858268
 20
-0.4518110236220473
 30
0.0
 11
-0.1903149606299212
 21
-0.4460629921259843
 31
0.0
  0
LINE
  5
1B2
330
21
100
AcDbEntity
  8
0
100
AcDbLine
 10
-0.1903149606299212
 20
-0.4460629921259843
 30
0.0
 11
-0.1841732283464567
 21
-0.4400787401574803
 31
0.0
  0
LINE
  5
1B3
330
21
100
AcDbEntity
  8
0
100
AcDbLine
 10
-0.1841732283464567
 20
-0.4400787401574803
 30
0.0
 11
-0.1783464566929134
 21
-0.4337401574803151
 31
0.0
  0
LINE
  5
1B4
330
21
100
AcDbEntity
  8
0
100
AcDbLine
 10
-0.1783464566929134
 20
-0.4337401574803151
 30
0.0
 11
-0.1729133858267716
 21
-0.4271259842519685
 31
0.0
  0
LINE
  5
1B5
330
21
100
AcDbEntity
  8
0
100
AcDbLine
 10
-0.1729133858267716
 20
-0.4271259842519685
 30
0.0
 11
-0.1679527559055118
 21
-0.4201181102362204
 31
0.0
  0
LINE
  5
1B6
330
21
100
AcDbEntity
  8
0
100
AcDbLine
 10
-0.1679527559055118
 20
-0.4201181102362204
 30
0.0
 11
-0.1637795275590551
 21
-0.4126377952755905
 31
0.0
  0
LINE
  5
1B7
330
21
100
AcDbEntity
  8
0
100
AcDbLine
 10
-0.1637795275590551
 20
-0.4126377952755905
 30
0.0
 11
-0.157755905511811
 21
-0.3920472440944882
 31
0.0
  0
LINE
  5
1B8
330
21
100
AcDbEntity
  8
0
100
AcDbLine
 10
-0.157755905511811
 20
-0.3920472440944882
 30
0.0
 11
-0.1492913385826772
 21
-0.3766141732283465
 31
0.0
  0
LINE
  5
1B9
330
21
100
AcDbEntity
  8
0
100
AcDbLine
 10
-0.1492913385826772
 20
-0.3766141732283465
 30
0.0
 11
-0.1397244094488189
 21
-0.3664173228346457
 31
0.0
  0
LINE
  5
1BA
330
21
100
AcDbEntity
  8
0
100
AcDbLine
 10
-0.1397244094488189
 20
-0.3664173228346457
 30
0.0
 11
-0.13
 21
-0.3614566929133858
 31
0.0
  0
LINE
  5
1BB
330
21
100
AcDbEntity
  8
0
100
AcDbLine
 10
-0.13
 20
-0.3614566929133858
 30
0.0
 11
-0.1209842519685039
 21
-0.3616535433070866
 31
0.0
  0
LINE
  5
1BC
330
21
100
AcDbEntity
  8
0
100
AcDbLine
 10
-0.1209842519685039
 20
-0.3616535433070866
 30
0.0
 11
-0.0760236220472441
 21
-0.3737007874015748
 31
0.0
  0
LINE
  5
1BD
330
21
100
AcDbEntity
  8
0
100
AcDbLine
 10
-0.0760236220472441
 20
-0.3737007874015748
 30
0.0
 11
-0.0681496062992126
 21
-0.3780314960629921
 31
0.0
  0
LINE
  5
1BE
330
21
100
AcDbEntity
  8
0
100
AcDbLine
 10
-0.0681496062992126
 20
-0.3780314960629921
 30
0.0
 11
-0.0622047244094488
 21
-0.3871653543307087
 31
0.0
  0
LINE
  5
1BF
330
21
100
AcDbEntity
  8
0
100
AcDbLine
 10
-0.0622047244094488
 20
-0.3871653543307087
 30
0.0
 11
-0.0590157480314961
 21
-0.4007874015748032
 31
0.0
  0
LINE
  5
1C0
330
21
100
AcDbEntity
  8
0
100
AcDbLine
 10
-0.0590157480314961
 20
-0.4007874015748032
 30
0.0
 11
-0.0594094488188977
 21
-0.4183858267716536
 31
0.0
  0
LINE
  5
1C1
330
21
100
AcDbEntity
  8
0
100
AcDbLine
 10
-0.0594094488188977
 20
-0.4183858267716536
 30
0.0
 11
-0.064488188976378
 21
-0.4392519685039371
 31
0.0
  0
LINE
  5
1C2
330
21
100
AcDbEntity
  8
0
100
AcDbLine
 10
-0.064488188976378
 20
-0.4392519685039371
 30
0.0
 11
-0.0646456692913386
 21
-0.4477952755905513
 31
0.0
  0
LINE
  5
1C3
330
21
100
AcDbEntity
  8
0
100
AcDbLine
 10
-0.0646456692913386
 20
-0.4477952755905513
 30
0.0
 11
-0.0638188976377953
 21
-0.4563385826771654
 31
0.0
  0
LINE
  5
1C4
330
21
100
AcDbEntity
  8
0
100
AcDbLine
 10
-0.0638188976377953
 20
-0.4563385826771654
 30
0.0
 11
-0.0624015748031496
 21
-0.4648425196850394
 31
0.0
  0
LINE
  5
1C5
330
21
100
AcDbEntity
  8
0
100
AcDbLine
 10
-0.0624015748031496
 20
-0.4648425196850394
 30
0.0
 11
-0.060511811023622
 21
-0.4731889763779528
 31
0.0
  0
LINE
  5
1C6
330
21
100
AcDbEntity
  8
0
100
AcDbLine
 10
-0.060511811023622
 20
-0.4731889763779528
 30
0.0
 11
-0.0582283464566929
 21
-0.4814566929133859
 31
0.0
  0
LINE
  5
1C7
330
21
100
AcDbEntity
  8
0
100
AcDbLine
 10
-0.0582283464566929
 20
-0.4814566929133859
 30
0.0
 11
-0.0555511811023622
 21
-0.4896456692913386
 31
0.0
  0
LINE
  5
1C8
330
21
100
AcDbEntity
  8
0
100
AcDbLine
 10
-0.0555511811023622
 20
-0.4896456692913386
 30
0.0
 11
-0.0525590551181102
 21
-0.4976771653543307
 31
0.0
  0
LINE
  5
1C9
330
21
100
AcDbEntity
  8
0
100
AcDbLine
 10
-0.0525590551181102
 20
-0.4976771653543307
 30
0.0
 11
-0.0492913385826772
 21
-0.5055905511811024
 31
0.0
  0
LINE
  5
1CA
330
21
100
AcDbEntity
  8
0
100
AcDbLine
 10
-0.0492913385826772
 20
-0.5055905511811024
 30
0.0
 11
-0.045748031496063
 21
-0.5134251968503937
 31
0.0
  0
LINE
  5
1CB
330
21
100
AcDbEntity
  8
0
100
AcDbLine
 10
-0.045748031496063
 20
-0.5134251968503937
 30
0.0
 11
-0.0419291338582677
 21
-0.5211023622047244
 31
0.0
  0
LINE
  5
1CC
330
21
100
AcDbEntity
  8
0
100
AcDbLine
 10
-0.0419291338582677
 20
-0.5211023622047244
 30
0.0
 11
-0.0378740157480315
 21
-0.5286614173228346
 31
0.0
  0
LINE
  5
1CD
330
21
100
AcDbEntity
  8
0
100
AcDbLine
 10
-0.0378740157480315
 20
-0.5286614173228346
 30
0.0
 11
-0.0335826771653543
 21
-0.5361417322834647
 31
0.0
  0
LINE
  5
1CE
330
21
100
AcDbEntity
  8
0
100
AcDbLine
 10
-0.0335826771653543
 20
-0.5361417322834647
 30
0.0
 11
-0.0291338582677165
 21
-0.5434645669291339
 31
0.0
  0
LINE
  5
1CF
330
21
100
AcDbEntity
  8
0
100
AcDbLine
 10
-0.0291338582677165
 20
-0.5434645669291339
 30
0.0
 11
-0.0244488188976378
 21
-0.5506299212598425
 31
0.0
  0
LINE
  5
1D0
330
21
100
AcDbEntity
  8
0
100
AcDbLine
 10
-0.0244488188976378
 20
-0.5506299212598425
 30
0.0
 11
0.0244488188976378
 21
-0.5506299212598425
 31
0.0
  0
LINE
  5
1D1
330
21
100
AcDbEntity
  8
0
100
AcDbLine
 10
0.0244488188976378
 20
-0.5506299212598425
 30
0.0
 11
0.0291338582677165
 21
-0.5434645669291339
 31
0.0
  0
LINE
  5
1D2
330
21
100
AcDbEntity
  8
0
100
AcDbLine
 10
0.0291338582677165
 20
-0.5434645669291339
 30
0.0
 11
0.0335826771653543
 21
-0.5361417322834647
 31
0.0
  0
LINE
  5
1D3
330
21
100
AcDbEntity
  8
0
100
AcDbLine
 10
0.0335826771653543
 20
-0.5361417322834647
 30
0.0
 11
0.0378740157480315
 21
-0.5286614173228346
 31
0.0
  0
LINE
  5
1D4
330
21
100
AcDbEntity
  8
0
100
AcDbLine
 10
0.0378740157480315
 20
-0.5286614173228346
 30
0.0
 11
0.0419291338582677
 21
-0.5211023622047244
 31
0.0
  0
LINE
  5
1D5
330
21
100
AcDbEntity
  8
0
100
AcDbLine
 10
0.0419291338582677
 20
-0.5211023622047244
 30
0.0
 11
0.045748031496063
 21
-0.5134251968503937
 31
0.0
  0
LINE
  5
1D6
330
21
100
AcDbEntity
  8
0
100
AcDbLine
 10
0.045748031496063
 20
-0.5134251968503937
 30
0.0
 11
0.0492913385826772
 21
-0.5055905511811024
 31
0.0
  0
LINE
  5
1D7
330
21
100
AcDbEntity
  8
0
100
AcDbLine
 10
0.0492913385826772
 20
-0.5055905511811024
 30
0.0
 11
0.0525590551181102
 21
-0.4976771653543307
 31
0.0
  0
LINE
  5
1D8
330
21
100
AcDbEntity
  8
0
100
AcDbLine
 10
0.0525590551181102
 20
-0.4976771653543307
 30
0.0
 11
0.0555511811023622
 21
-0.4896456692913386
 31
0.0
  0
LINE
  5
1D9
330
21
100
AcDbEntity
  8
0
100
AcDbLine
 10
0.0555511811023622
 20
-0.4896456692913386
 30
0.0
 11
0.0582283464566929
 21
-0.4814566929133859
 31
0.0
  0
LINE
  5
1DA
330
21
100
AcDbEntity
  8
0
100
AcDbLine
 10
0.0582283464566929
 20
-0.4814566929133859
 30
0.0
 11
0.060511811023622
 21
-0.4731889763779528
 31
0.0
  0
LINE
  5
1DB
330
21
100
AcDbEntity
  8
0
100
AcDbLine
 10
0.060511811023622
 20
-0.4731889763779528
 30
0.0
 11
0.0624015748031496
 21
-0.4648425196850394
 31
0.0
  0
LINE
  5
1DC
330
21
100
AcDbEntity
  8
0
100
AcDbLine
 10
0.0624015748031496
 20
-0.4648425196850394
 30
0.0
 11
0.0638188976377953
 21
-0.4563385826771654
 31
0.0
  0
LINE
  5
1DD
330
21
100
AcDbEntity
  8
0
100
AcDbLine
 10
0.0638188976377953
 20
-0.4563385826771654
 30
0.0
 11
0.0646456692913386
 21
-0.4477952755905513
 31
0.0
  0
LINE
  5
1DE
330
21
100
AcDbEntity
  8
0
100
AcDbLine
 10
0.0646456692913386
 20
-0.4477952755905513
 30
0.0
 11
0.064488188976378
 21
-0.4392519685039371
 31
0.0
  0
LINE
  5
1DF
330
21
100
AcDbEntity
  8
0
100
AcDbLine
 10
0.064488188976378
 20
-0.4392519685039371
 30
0.0
 11
0.0594094488188977
 21
-0.4183858267716536
 31
0.0
  0
LINE
  5
1E0
330
21
100
AcDbEntity
  8
0
100
AcDbLine
 10
0.0594094488188977
 20
-0.4183858267716536
 30
0.0
 11
0.0590157480314961
 21
-0.4007874015748032
 31
0.0
  0
LINE
  5
1E1
330
21
100
AcDbEntity
  8
0
100
AcDbLine
 10
0.0590157480314961
 20
-0.4007874015748032
 30
0.0
 11
0.0622047244094488
 21
-0.3871653543307087
 31
0.0
  0
LINE
  5
1E2
330
21
100
AcDbEntity
  8
0
100
AcDbLine
 10
0.0622047244094488
 20
-0.3871653543307087
 30
0.0
 11
0.0681496062992126
 21
-0.3780314960629921
 31
0.0
  0
LINE
  5
1E3
330
21
100
AcDbEntity
  8
0
100
AcDbLine
 10
0.0681496062992126
 20
-0.3780314960629921
 30
0.0
 11
0.0760236220472441
 21
-0.3737007874015748
 31
0.0
  0
LINE
  5
1E4
330
21
100
AcDbEntity
  8
0
100
AcDbLine
 10
0.0760236220472441
 20
-0.3737007874015748
 30
0.0
 11
0.1209842519685039
 21
-0.3616535433070866
 31
0.0
  0
LINE
  5
1E5
330
21
100
AcDbEntity
  8
0
100
AcDbLine
 10
0.1209842519685039
 20
-0.3616535433070866
 30
0.0
 11
0.13
 21
-0.3614566929133858
 31
0.0
  0
LINE
  5
1E6
330
21
100
AcDbEntity
  8
0
100
AcDbLine
 10
0.13
 20
-0.3614566929133858
 30
0.0
 11
0.1397244094488189
 21
-0.3664173228346457
 31
0.0
  0
LINE
  5
1E7
330
21
100
AcDbEntity
  8
0
100
AcDbLine
 10
0.1397244094488189
 20
-0.3664173228346457
 30
0.0
 11
0.1492913385826772
 21
-0.3766141732283465
 31
0.0
  0
LINE
  5
1E8
330
21
100
AcDbEntity
  8
0
100
AcDbLine
 10
0.1492913385826772
 20
-0.3766141732283465
 30
0.0
 11
0.157755905511811
 21
-0.3920472440944882
 31
0.0
  0
LINE
  5
1E9
330
21
100
AcDbEntity
  8
0
100
AcDbLine
 10
0.157755905511811
 20
-0.3920472440944882
 30
0.0
 11
0.1637795275590551
 21
-0.4126377952755905
 31
0.0
  0
LINE
  5
1EA
330
21
100
AcDbEntity
  8
0
100
AcDbLine
 10
0.1637795275590551
 20
-0.4126377952755905
 30
0.0
 11
0.1679527559055118
 21
-0.4201181102362204
 31
0.0
  0
LINE
  5
1EB
330
21
100
AcDbEntity
  8
0
100
AcDbLine
 10
0.1679527559055118
 20
-0.4201181102362204
 30
0.0
 11
0.1729133858267716
 21
-0.4271259842519685
 31
0.0
  0
LINE
  5
1EC
330
21
100
AcDbEntity
  8
0
100
AcDbLine
 10
0.1729133858267716
 20
-0.4271259842519685
 30
0.0
 11
0.1783464566929134
 21
-0.4337401574803151
 31
0.0
  0
LINE
  5
1ED
330
21
100
AcDbEntity
  8
0
100
AcDbLine
 10
0.1783464566929134
 20
-0.4337401574803151
 30
0.0
 11
0.1841732283464567
 21
-0.4400787401574803
 31
0.0
  0
LINE
  5
1EE
330
21
100
AcDbEntity
  8
0
100
AcDbLine
 10
0.1841732283464567
 20
-0.4400787401574803
 30
0.0
 11
0.1903149606299212
 21
-0.4460629921259843
 31
0.0
  0
LINE
  5
1EF
330
21
100
AcDbEntity
  8
0
100
AcDbLine
 10
0.1903149606299212
 20
-0.4460629921259843
 30
0.0
 11
0.1966929133858268
 21
-0.4518110236220473
 31
0.0
  0
LINE
  5
1F0
330
21
100
AcDbEntity
  8
0
100
AcDbLine
 10
0.1966929133858268
 20
-0.4518110236220473
 30
0.0
 11
0.2033070866141732
 21
-0.4572834645669292
 31
0.0
  0
LINE
  5
1F1
330
21
100
AcDbEntity
  8
0
100
AcDbLine
 10
0.2033070866141732
 20
-0.4572834645669292
 30
0.0
 11
0.2101181102362205
 21
-0.4625196850393701
 31
0.0
  0
LINE
  5
1F2
330
21
100
AcDbEntity
  8
0
100
AcDbLine
 10
0.2101181102362205
 20
-0.4625196850393701
 30
0.0
 11
0.2170866141732283
 21
-0.4675196850393701
 31
0.0
  0
LINE
  5
1F3
330
21
100
AcDbEntity
  8
0
100
AcDbLine
 10
0.2170866141732283
 20
-0.4675196850393701
 30
0.0
 11
0.224251968503937
 21
-0.4722440944881889
 31
0.0
  0
LINE
  5
1F4
330
21
100
AcDbEntity
  8
0
100
AcDbLine
 10
0.224251968503937
 20
-0.4722440944881889
 30
0.0
 11
0.2315354330708661
 21
-0.4767716535433071
 31
0.0
  0
LINE
  5
1F5
330
21
100
AcDbEntity
  8
0
100
AcDbLine
 10
0.2315354330708661
 20
-0.4767716535433071
 30
0.0
 11
0.2389763779527559
 21
-0.4811023622047245
 31
0.0
  0
LINE
  5
1F6
330
21
100
AcDbEntity
  8
0
100
AcDbLine
 10
0.2389763779527559
 20
-0.4811023622047245
 30
0.0
 11
0.246496062992126
 21
-0.4851968503937009
 31
0.0
  0
LINE
  5
1F7
330
21
100
AcDbEntity
  8
0
100
AcDbLine
 10
0.246496062992126
 20
-0.4851968503937009
 30
0.0
 11
0.2541732283464567
 21
-0.4890944881889764
 31
0.0
  0
LINE
  5
1F8
330
21
100
AcDbEntity
  8
0
100
AcDbLine
 10
0.2541732283464567
 20
-0.4890944881889764
 30
0.0
 11
0.296496062992126
 21
-0.4646456692913386
 31
0.0
  0
LINE
  5
1F9
330
21
100
AcDbEntity
  8
0
100
AcDbLine
 10
0.296496062992126
 20
-0.4646456692913386
 30
0.0
 11
0.2969291338582678
 21
-0.4560629921259844
 31
0.0
  0
LINE
  5
1FA
330
21
100
AcDbEntity
  8
0
100
AcDbLine
 10
0.2969291338582678
 20
-0.4560629921259844
 30
0.0
 11
0.2971653543307086
 21
-0.4475196850393701
 31
0.0
  0
LINE
  5
1FB
330
21
100
AcDbEntity
  8
0
100
AcDbLine
 10
0.2971653543307086
 20
-0.4475196850393701
 30
0.0
 11
0.2971259842519685
 21
-0.4388976377952756
 31
0.0
  0
LINE
  5
1FC
330
21
100
AcDbEntity
  8
0
100
AcDbLine
 10
0.2971259842519685
 20
-0.4388976377952756
 30
0.0
 11
0.2968503937007874
 21
-0.4303543307086614
 31
0.0
  0
LINE
  5
1FD
330
21
100
AcDbEntity
  8
0
100
AcDbLine
 10
0.2968503937007874
 20
-0.4303543307086614
 30
0.0
 11
0.2962992125984252
 21
-0.4217716535433071
 31
0.0
  0
LINE
  5
1FE
330
21
100
AcDbEntity
  8
0
100
AcDbLine
 10
0.2962992125984252
 20
-0.4217716535433071
 30
0.0
 11
0.2955118110236221
 21
-0.4132283464566929
 31
0.0
  0
LINE
  5
1FF
330
21
100
AcDbEntity
  8
0
100
AcDbLine
 10
0.2955118110236221
 20
-0.4132283464566929
 30
0.0
 11
0.2943700787401575
 21
-0.4047244094488189
 31
0.0
  0
LINE
  5
200
330
21
100
AcDbEntity
  8
0
100
AcDbLine
 10
0.2943700787401575
 20
-0.4047244094488189
 30
0.0
 11
0.2929527559055118
 21
-0.396259842519685
 31
0.0
  0
LINE
  5
201
330
21
100
AcDbEntity
  8
0
100
AcDbLine
 10
0.2929527559055118
 20
-0.396259842519685
 30
0.0
 11
0.2911417322834646
 21
-0.3878346456692914
 31
0.0
  0
LINE
  5
202
330
21
100
AcDbEntity
  8
0
100
AcDbLine
 10
0.2911417322834646
 20
-0.3878346456692914
 30
0.0
 11
0.2890157480314961
 21
-0.3795275590551181
 31
0.0
  0
LINE
  5
203
330
21
100
AcDbEntity
  8
0
100
AcDbLine
 10
0.2890157480314961
 20
-0.3795275590551181
 30
0.0
 11
0.2864566929133858
 21
-0.3713385826771653
 31
0.0
  0
LINE
  5
204
330
21
100
AcDbEntity
  8
0
100
AcDbLine
 10
0.2864566929133858
 20
-0.3713385826771653
 30
0.0
 11
0.2834645669291338
 21
-0.3633070866141732
 31
0.0
  0
LINE
  5
205
330
21
100
AcDbEntity
  8
0
100
AcDbLine
 10
0.2834645669291338
 20
-0.3633070866141732
 30
0.0
 11
0.2798818897637795
 21
-0.355511811023622
 31
0.0
  0
LINE
  5
206
330
21
100
AcDbEntity
  8
0
100
AcDbLine
 10
0.2798818897637795
 20
-0.355511811023622
 30
0.0
 11
0.2754724409448819
 21
-0.3481496062992126
 31
0.0
  0
LINE
  5
207
330
21
100
AcDbEntity
  8
0
100
AcDbLine
 10
0.2754724409448819
 20
-0.3481496062992126
 30
0.0
 11
0.2606299212598425
 21
-0.3326377952755906
 31
0.0
  0
LINE
  5
208
330
21
100
AcDbEntity
  8
0
100
AcDbLine
 10
0.2606299212598425
 20
-0.3326377952755906
 30
0.0
 11
0.2514960629921259
 21
-0.3175984251968504
 31
0.0
  0
LINE
  5
209
330
21
100
AcDbEntity
  8
0
100
AcDbLine
 10
0.2514960629921259
 20
-0.3175984251968504
 30
0.0
 11
0.2474409448818898
 21
-0.3042125984251969
 31
0.0
  0
LINE
  5
20A
330
21
100
AcDbEntity
  8
0
100
AcDbLine
 10
0.2474409448818898
 20
-0.3042125984251969
 30
0.0
 11
0.2480314960629921
 21
-0.2933070866141732
 31
0.0
  0
LINE
  5
20B
330
21
100
AcDbEntity
  8
0
100
AcDbLine
 10
0.2480314960629921
 20
-0.2933070866141732
 30
0.0
 11
0.2526771653543307
 21
-0.2855905511811023
 31
0.0
  0
LINE
  5
20C
330
21
100
AcDbEntity
  8
0
100
AcDbLine
 10
0.2526771653543307
 20
-0.2855905511811023
 30
0.0
 11
0.2855905511811023
 21
-0.2526771653543307
 31
0.0
  0
LINE
  5
20D
330
21
100
AcDbEntity
  8
0
100
AcDbLine
 10
0.2855905511811023
 20
-0.2526771653543307
 30
0.0
 11
0.2933070866141732
 21
-0.2480314960629921
 31
0.0
  0
LINE
  5
20E
330
21
100
AcDbEntity
  8
0
100
AcDbLine
 10
0.2933070866141732
 20
-0.2480314960629921
 30
0.0
 11
0.3042125984251969
 21
-0.2474409448818898
 31
0.0
  0
LINE
  5
20F
330
21
100
AcDbEntity
  8
0
100
AcDbLine
 10
0.3042125984251969
 20
-0.2474409448818898
 30
0.0
 11
0.3175984251968504
 21
-0.2514960629921259
 31
0.0
  0
LINE
  5
210
330
21
100
AcDbEntity
  8
0
100
AcDbLine
 10
0.3175984251968504
 20
-0.2514960629921259
 30
0.0
 11
0.3326377952755906
 21
-0.2606299212598425
 31
0.0
  0
LINE
  5
211
330
21
100
AcDbEntity
  8
0
100
AcDbLine
 10
0.3326377952755906
 20
-0.2606299212598425
 30
0.0
 11
0.3481496062992126
 21
-0.2754724409448819
 31
0.0
  0
LINE
  5
212
330
21
100
AcDbEntity
  8
0
100
AcDbLine
 10
0.3481496062992126
 20
-0.2754724409448819
 30
0.0
 11
0.355511811023622
 21
-0.2798818897637795
 31
0.0
  0
LINE
  5
213
330
21
100
AcDbEntity
  8
0
100
AcDbLine
 10
0.355511811023622
 20
-0.2798818897637795
 30
0.0
 11
0.3633070866141732
 21
-0.2834645669291338
 31
0.0
  0
LINE
  5
214
330
21
100
AcDbEntity
  8
0
100
AcDbLine
 10
0.3633070866141732
 20
-0.2834645669291338
 30
0.0
 11
0.3713385826771653
 21
-0.2864566929133858
 31
0.0
  0
LINE
  5
215
330
21
100
AcDbEntity
  8
0
100
AcDbLine
 10
0.3713385826771653
 20
-0.2864566929133858
 30
0.0
 11
0.3795275590551181
 21
-0.2890157480314961
 31
0.0
  0
LINE
  5
216
330
21
100
AcDbEntity
  8
0
100
AcDbLine
 10
0.3795275590551181
 20
-0.2890157480314961
 30
0.0
 11
0.3878346456692914
 21
-0.2911417322834646
 31
0.0
  0
LINE
  5
217
330
21
100
AcDbEntity
  8
0
100
AcDbLine
 10
0.3878346456692914
 20
-0.2911417322834646
 30
0.0
 11
0.396259842519685
 21
-0.2929527559055118
 31
0.0
  0
LINE
  5
218
330
21
100
AcDbEntity
  8
0
100
AcDbLine
 10
0.396259842519685
 20
-0.2929527559055118
 30
0.0
 11
0.4047244094488189
 21
-0.2943700787401575
 31
0.0
  0
LINE
  5
219
330
21
100
AcDbEntity
  8
0
100
AcDbLine
 10
0.4047244094488189
 20
-0.2943700787401575
 30
0.0
 11
0.4132283464566929
 21
-0.2955118110236221
 31
0.0
  0
LINE
  5
21A
330
21
100
AcDbEntity
  8
0
100
AcDbLine
 10
0.4132283464566929
 20
-0.2955118110236221
 30
0.0
 11
0.4217716535433071
 21
-0.2962992125984252
 31
0.0
  0
LINE
  5
21B
330
21
100
AcDbEntity
  8
0
100
AcDbLine
 10
0.4217716535433071
 20
-0.2962992125984252
 30
0.0
 11
0.4303543307086614
 21
-0.2968503937007874
 31
0.0
  0
LINE
  5
21C
330
21
100
AcDbEntity
  8
0
100
AcDbLine
 10
0.4303543307086614
 20
-0.2968503937007874
 30
0.0
 11
0.4388976377952756
 21
-0.2971259842519685
 31
0.0
  0
LINE
  5
21D
330
21
100
AcDbEntity
  8
0
100
AcDbLine
 10
0.4388976377952756
 20
-0.2971259842519685
 30
0.0
 11
0.4475196850393701
 21
-0.2971653543307086
 31
0.0
  0
LINE
  5
21E
330
21
100
AcDbEntity
  8
0
100
AcDbLine
 10
0.4475196850393701
 20
-0.2971653543307086
 30
0.0
 11
0.4560629921259844
 21
-0.2969291338582678
 31
0.0
  0
LINE
  5
21F
330
21
100
AcDbEntity
  8
0
100
AcDbLine
 10
0.4560629921259844
 20
-0.2969291338582678
 30
0.0
 11
0.4646456692913386
 21
-0.296496062992126
 31
0.0
  0
LINE
  5
220
330
21
100
AcDbEntity
  8
0
100
AcDbLine
 10
0.4646456692913386
 20
-0.296496062992126
 30
0.0
 11
0.4890944881889764
 21
-0.2541732283464567
 31
0.0
  0
LINE
  5
221
330
21
100
AcDbEntity
  8
0
100
AcDbLine
 10
0.4890944881889764
 20
-0.2541732283464567
 30
0.0
 11
0.4851968503937009
 21
-0.246496062992126
 31
0.0
  0
LINE
  5
222
330
21
100
AcDbEntity
  8
0
100
AcDbLine
 10
0.4851968503937009
 20
-0.246496062992126
 30
0.0
 11
0.4811023622047245
 21
-0.2389763779527559
 31
0.0
  0
LINE
  5
223
330
21
100
AcDbEntity
  8
0
100
AcDbLine
 10
0.4811023622047245
 20
-0.2389763779527559
 30
0.0
 11
0.4767716535433071
 21
-0.2315354330708661
 31
0.0
  0
LINE
  5
224
330
21
100
AcDbEntity
  8
0
100
AcDbLine
 10
0.4767716535433071
 20
-0.2315354330708661
 30
0.0
 11
0.4722440944881889
 21
-0.224251968503937
 31
0.0
  0
LINE
  5
225
330
21
100
AcDbEntity
  8
0
100
AcDbLine
 10
0.4722440944881889
 20
-0.224251968503937
 30
0.0
 11
0.4675196850393701
 21
-0.2170866141732283
 31
0.0
  0
LINE
  5
226
330
21
100
AcDbEntity
  8
0
100
AcDbLine
 10
0.4675196850393701
 20
-0.2170866141732283
 30
0.0
 11
0.4625196850393701
 21
-0.2101181102362205
 31
0.0
  0
LINE
  5
227
330
21
100
AcDbEntity
  8
0
100
AcDbLine
 10
0.4625196850393701
 20
-0.2101181102362205
 30
0.0
 11
0.4572834645669292
 21
-0.2033070866141732
 31
0.0
  0
LINE
  5
228
330
21
100
AcDbEntity
  8
0
100
AcDbLine
 10
0.4572834645669292
 20
-0.2033070866141732
 30
0.0
 11
0.4518110236220473
 21
-0.1966929133858268
 31
0.0
  0
LINE
  5
229
330
21
100
AcDbEntity
  8
0
100
AcDbLine
 10
0.4518110236220473
 20
-0.1966929133858268
 30
0.0
 11
0.4460629921259843
 21
-0.1903149606299212
 31
0.0
  0
LINE
  5
22A
330
21
100
AcDbEntity
  8
0
100
AcDbLine
 10
0.4460629921259843
 20
-0.1903149606299212
 30
0.0
 11
0.4400787401574803
 21
-0.1841732283464567
 31
0.0
  0
LINE
  5
22B
330
21
100
AcDbEntity
  8
0
100
AcDbLine
 10
0.4400787401574803
 20
-0.1841732283464567
 30
0.0
 11
0.4337401574803151
 21
-0.1783464566929134
 31
0.0
  0
LINE
  5
22C
330
21
100
AcDbEntity
  8
0
100
AcDbLine
 10
0.4337401574803151
 20
-0.1783464566929134
 30
0.0
 11
0.4271259842519685
 21
-0.1729133858267716
 31
0.0
  0
LINE
  5
22D
330
21
100
AcDbEntity
  8
0
100
AcDbLine
 10
0.4271259842519685
 20
-0.1729133858267716
 30
0.0
 11
0.4201181102362204
 21
-0.1679527559055118
 31
0.0
  0
LINE
  5
22E
330
21
100
AcDbEntity
  8
0
100
AcDbLine
 10
0.4201181102362204
 20
-0.1679527559055118
 30
0.0
 11
0.4126377952755905
 21
-0.1637795275590551
 31
0.0
  0
LINE
  5
22F
330
21
100
AcDbEntity
  8
0
100
AcDbLine
 10
0.4126377952755905
 20
-0.1637795275590551
 30
0.0
 11
0.3920472440944882
 21
-0.157755905511811
 31
0.0
  0
LINE
  5
230
330
21
100
AcDbEntity
  8
0
100
AcDbLine
 10
0.3920472440944882
 20
-0.157755905511811
 30
0.0
 11
0.3766141732283465
 21
-0.1492913385826772
 31
0.0
  0
LINE
  5
231
330
21
100
AcDbEntity
  8
0
100
AcDbLine
 10
0.3766141732283465
 20
-0.1492913385826772
 30
0.0
 11
0.3664173228346457
 21
-0.1397244094488189
 31
0.0
  0
LINE
  5
232
330
21
100
AcDbEntity
  8
0
100
AcDbLine
 10
0.3664173228346457
 20
-0.1397244094488189
 30
0.0
 11
0.3614566929133858
 21
-0.13
 31
0.0
  0
LINE
  5
233
330
21
100
AcDbEntity
  8
0
100
AcDbLine
 10
0.3614566929133858
 20
-0.13
 30
0.0
 11
0.3616535433070866
 21
-0.1209842519685039
 31
0.0
  0
LINE
  5
234
330
21
100
AcDbEntity
  8
0
100
AcDbLine
 10
0.3616535433070866
 20
-0.1209842519685039
 30
0.0
 11
0.3737007874015748
 21
-0.0760236220472441
 31
0.0
  0
ENDSEC
  0
SECTION
  2
OBJECTS
  0
DICTIONARY
  5
C
330
0
100
AcDbDictionary
281
     1
  3
ACAD_COLOR
350
1C
  3
ACAD_GROUP
350
D
  3
ACAD_LAYOUT
350
1A
  3
ACAD_MATERIAL
350
1B
  3
ACAD_MLINESTYLE
350
17
  3
ACAD_PLOTSETTINGS
350
19
  3
ACAD_PLOTSTYLENAME
350
E
  0
DICTIONARY
  5
1C
102
{ACAD_REACTORS
330
C
102
}
330
C
100
AcDbDictionary
281
     1
  0
DICTIONARY
  5
D
102
{ACAD_REACTORS
330
C
102
}
330
C
100
AcDbDictionary
281
     1
  0
DICTIONARY
  5
1A
102
{ACAD_REACTORS
330
C
102
}
330
C
100
AcDbDictionary
281
     1
  3
Layout1
350
20
  3
Layout2
350
28
  3
Model
350
24
  0
DICTIONARY
  5
1B
102
{ACAD_REACTORS
330
C
102
}
330
C
100
AcDbDictionary
281
     1
  0
DICTIONARY
  5
17
102
{ACAD_REACTORS
330
C
102
}
330
C
100
AcDbDictionary
281
     1
  3
Standard
350
18
  0
DICTIONARY
  5
19
102
{ACAD_REACTORS
330
C
102
}
330
C
100
AcDbDictionary
281
     1
  0
ACDBDICTIONARYWDFLT
  5
E
102
{ACAD_REACTORS
330
C
102
}
330
C
100
AcDbDictionary
281
     1
  3
Normal
350
F
100
AcDbDictionaryWithDefault
340
F
  0
LAYOUT
  5
20
102
{ACAD_REACTORS
330
1A
102
}
330
1A
100
AcDbPlotSettings
  1

  2

  4

  6

 40
0.0
 41
0.0
 42
0.0
 43
0.0
 44
0.0
 45
0.0
 46
0.0
 47
0.0
 48
0.0
 49
0.0
140
0.0
141
0.0
142
1.0
143
1.0
 70
   688
 72
     0
 73
     0
 74
     5
  7

 75
    16
147
1.0
 76
     0
 77
     2
 78
   300
148
0.0
149
0.0
100
AcDbLayout
  1
Layout1
 70
     1
 71
     1
 10
0.0
 20
0.0
 11
12.0
 21
9.0
 12
0.0
 22
0.0
 32
0.0
 14
0.0
 24
0.0
 34
0.0
 15
0.0
 25
0.0
 35
0.0
146
0.0
 13
0.0
 23
0.0
 33
0.0
 16
1.0
 26
0.0
 36
0.0
 17
0.0
 27
1.0
 37
0.0
 76
     0
330
1D
  0
LAYOUT
  5
28
102
{ACAD_REACTORS
330
1A
102
}
330
1A
100
AcDbPlotSettings
  1

  2

  4

  6

 40
0.0
 41
0.0
 42
0.0
 43
0.0
 44
0.0
 45
0.0
 46
0.0
 47
0.0
 48
0.0
 49
0.0
140
0.0
141
0.0
142
1.0
143
1.0
 70
   688
 72
     0
 73
     0
 74
     5
  7

 75
    16
147
1.0
 76
     0
 77
     2
 78
   300
148
0.0
149
0.0
100
AcDbLayout
  1
Layout2
 70
     1
 71
     2
 10
0.0
 20
0.0
 11
12.0
 21
9.0
 12
0.0
 22
0.0
 32
0.0
 14
0.0
 24
0.0
 34
0.0
 15
0.0
 25
0.0
 35
0.0
146
0.0
 13
0.0
 23
0.0
 33
0.0
 16
1.0
 26
0.0
 36
0.0
 17
0.0
 27
1.0
 37
0.0
 76
     0
330
25
  0
LAYOUT
  5
24
102
{ACAD_REACTORS
330
1A
102
}
330
1A
100
AcDbPlotSettings
  1

  2

  4

  6

 40
0.0
 41
0.0
 42
0.0
 43
0.0
 44
0.0
 45
0.0
 46
0.0
 47
0.0
 48
0.0
 49
0.0
140
0.0
141
0.0
142
1.0
143
1.0
 70
  1712
 72
     0
 73
     0
 74
     0
  7

 75
     0
147
1.0
 76
     0
 77
     2
 78
   300
148
0.0
149
0.0
100
AcDbLayout
  1
Model
 70
     1
 71
     0
 10
0.0
 20
0.0
 11
12.0
 21
9.0
 12
0.0
 22
0.0
 32
0.0
 14
0.0
 24
0.0
 34
0.0
 15
0.0
 25
0.0
 35
0.0
146
0.0
 13
0.0
 23
0.0
 33
0.0
 16
1.0
 26
0.0
 36
0.0
 17
0.0
 27
1.0
 37
0.0
 76
     0
330
21
  0
MLINESTYLE
  5
18
102
{ACAD_REACTORS
330
17
102
}
330
17
100
AcDbMlineStyle
  2
STANDARD
 70
     0
  3

 62
   256
 51
90.0
 52
90.0
 71
     2
 49
0.5
 62
   256
  6
BYLAYER
 49
-0.5
 62
   256
  6
BYLAYER
  0
ACDBPLACEHOLDER
  5
F
102
{ACAD_REACTORS
330
E
102
}
330
E
  0
ENDSEC
  0
EOF
