<?xml version="1.0" encoding="UTF-8" standalone="no"?>
<!-- Created with Inkscape (http://www.inkscape.org/) -->

<svg
   xmlns:dc="http://purl.org/dc/elements/1.1/"
   xmlns:cc="http://creativecommons.org/ns#"
   xmlns:rdf="http://www.w3.org/1999/02/22-rdf-syntax-ns#"
   xmlns:svg="http://www.w3.org/2000/svg"
   xmlns="http://www.w3.org/2000/svg"
   xmlns:sodipodi="http://sodipodi.sourceforge.net/DTD/sodipodi-0.dtd"
   xmlns:inkscape="http://www.inkscape.org/namespaces/inkscape"
   width="175.94423"
   height="143.94423"
   id="svg2"
   version="1.1"
   inkscape:version="0.48.1 r9760"
   sodipodi:docname="caps.svg">
  <defs
     id="defs4" />
  <sodipodi:namedview
     id="base"
     pagecolor="#ffffff"
     bordercolor="#666666"
     borderopacity="1.0"
     inkscape:pageopacity="0.0"
     inkscape:pageshadow="2"
     inkscape:zoom="9.1792067"
     inkscape:cx="100.49007"
     inkscape:cy="35.124201"
     inkscape:document-units="in"
     inkscape:current-layer="layer1"
     showgrid="false"
     units="in"
     fit-margin-top="0.5"
     fit-margin-left="0.5"
     fit-margin-right="0.5"
     fit-margin-bottom="0.5"
     inkscape:window-width="2560"
     inkscape:window-height="1396"
     inkscape:window-x="0"
     inkscape:window-y="0"
     inkscape:window-maximized="0" />
  <metadata
     id="metadata7">
    <rdf:RDF>
      <cc:Work
         rdf:about="">
        <dc:format>image/svg+xml</dc:format>
        <dc:type
           rdf:resource="http://purl.org/dc/dcmitype/StillImage" />
        <dc:title></dc:title>
      </cc:Work>
    </rdf:RDF>
  </metadata>
  <g
     inkscape:label="Layer 1"
     inkscape:groupmode="layer"
     id="layer1"
     transform="translate(69.661746,74.367468)">
    <g
       id="g2999"
       style="fill:none;stroke:#000000;stroke-width:0.09;stroke-miterlimit:4;stroke-opacity:1;stroke-dasharray:none"
       transform="translate(-36,-46)">
      <path
         transform="matrix(0.19626985,0,0,0.19626985,6.9264664,9.7944206)"
         d="m 131.42857,100.93361 c 0,23.66935 -19.1878,42.85714 -42.857144,42.85714 -23.669346,0 -42.857143,-19.18779 -42.857143,-42.85714 0,-23.669348 19.187797,-42.857144 42.857143,-42.857144 23.669344,0 42.857144,19.187796 42.857144,42.857144 z"
         sodipodi:ry="42.857143"
         sodipodi:rx="42.857143"
         sodipodi:cy="100.93361"
         sodipodi:cx="88.571426"
         id="path2985"
         style="fill:none;stroke:#000000;stroke-width:0.45855236;stroke-linecap:butt;stroke-linejoin:miter;stroke-miterlimit:4;stroke-opacity:1;stroke-dasharray:none;stroke-dashoffset:0"
         sodipodi:type="arc" />
      <path
         transform="translate(-28.25409,-31.021511)"
         d="m 65.47407,60.626156 c 0,7.129782 -5.779831,12.909613 -12.909613,12.909613 -7.129782,0 -12.909613,-5.779831 -12.909613,-12.909613 0,-7.129782 5.779831,-12.909613 12.909613,-12.909613 7.129782,0 12.909613,5.779831 12.909613,12.909613 z"
         sodipodi:ry="12.909613"
         sodipodi:rx="12.909613"
         sodipodi:cy="60.626156"
         sodipodi:cx="52.564457"
         id="path2997"
         style="fill:none;stroke:#000000;stroke-width:0.09;stroke-linecap:butt;stroke-linejoin:miter;stroke-miterlimit:4;stroke-opacity:1;stroke-dasharray:none;stroke-dashoffset:0"
         sodipodi:type="arc" />
    </g>
    <g
       transform="translate(-6,-46)"
       style="fill:none;stroke:#000000;stroke-width:0.09;stroke-miterlimit:4;stroke-opacity:1;stroke-dasharray:none"
       id="g3771">
      <path
         sodipodi:type="arc"
         style="fill:none;stroke:#000000;stroke-width:0.45855236;stroke-linecap:butt;stroke-linejoin:miter;stroke-miterlimit:4;stroke-opacity:1;stroke-dasharray:none;stroke-dashoffset:0"
         id="path3773"
         sodipodi:cx="88.571426"
         sodipodi:cy="100.93361"
         sodipodi:rx="42.857143"
         sodipodi:ry="42.857143"
         d="m 131.42857,100.93361 c 0,23.66935 -19.1878,42.85714 -42.857144,42.85714 -23.669346,0 -42.857143,-19.18779 -42.857143,-42.85714 0,-23.669348 19.187797,-42.857144 42.857143,-42.857144 23.669344,0 42.857144,19.187796 42.857144,42.857144 z"
         transform="matrix(0.19626985,0,0,0.19626985,6.9264664,9.7944206)" />
      <path
         sodipodi:type="arc"
         style="fill:none;stroke:#000000;stroke-width:0.09;stroke-linecap:butt;stroke-linejoin:miter;stroke-miterlimit:4;stroke-opacity:1;stroke-dasharray:none;stroke-dashoffset:0"
         id="path3775"
         sodipodi:cx="52.564457"
         sodipodi:cy="60.626156"
         sodipodi:rx="12.909613"
         sodipodi:ry="12.909613"
         d="m 65.47407,60.626156 c 0,7.129782 -5.779831,12.909613 -12.909613,12.909613 -7.129782,0 -12.909613,-5.779831 -12.909613,-12.909613 0,-7.129782 5.779831,-12.909613 12.909613,-12.909613 7.129782,0 12.909613,5.779831 12.909613,12.909613 z"
         transform="translate(-28.25409,-31.021511)" />
    </g>
    <g
       id="g3777"
       style="fill:none;stroke:#000000;stroke-width:0.09;stroke-miterlimit:4;stroke-opacity:1;stroke-dasharray:none"
       transform="translate(24,-46)">
      <path
         transform="matrix(0.19626985,0,0,0.19626985,6.9264664,9.7944206)"
         d="m 131.42857,100.93361 c 0,23.66935 -19.1878,42.85714 -42.857144,42.85714 -23.669346,0 -42.857143,-19.18779 -42.857143,-42.85714 0,-23.669348 19.187797,-42.857144 42.857143,-42.857144 23.669344,0 42.857144,19.187796 42.857144,42.857144 z"
         sodipodi:ry="42.857143"
         sodipodi:rx="42.857143"
         sodipodi:cy="100.93361"
         sodipodi:cx="88.571426"
         id="path3779"
         style="fill:none;stroke:#000000;stroke-width:0.45855236;stroke-linecap:butt;stroke-linejoin:miter;stroke-miterlimit:4;stroke-opacity:1;stroke-dasharray:none;stroke-dashoffset:0"
         sodipodi:type="arc" />
      <path
         transform="translate(-28.25409,-31.021511)"
         d="m 65.47407,60.626156 c 0,7.129782 -5.779831,12.909613 -12.909613,12.909613 -7.129782,0 -12.909613,-5.779831 -12.909613,-12.909613 0,-7.129782 5.779831,-12.909613 12.909613,-12.909613 7.129782,0 12.909613,5.779831 12.909613,12.909613 z"
         sodipodi:ry="12.909613"
         sodipodi:rx="12.909613"
         sodipodi:cy="60.626156"
         sodipodi:cx="52.564457"
         id="path3781"
         style="fill:none;stroke:#000000;stroke-width:0.09;stroke-linecap:butt;stroke-linejoin:miter;stroke-miterlimit:4;stroke-opacity:1;stroke-dasharray:none;stroke-dashoffset:0"
         sodipodi:type="arc" />
    </g>
    <g
       transform="translate(-36,-18)"
       style="fill:none;stroke:#000000;stroke-width:0.09;stroke-miterlimit:4;stroke-opacity:1;stroke-dasharray:none"
       id="g3789">
      <path
         sodipodi:type="arc"
         style="fill:none;stroke:#000000;stroke-width:0.45855236;stroke-linecap:butt;stroke-linejoin:miter;stroke-miterlimit:4;stroke-opacity:1;stroke-dasharray:none;stroke-dashoffset:0"
         id="path3791"
         sodipodi:cx="88.571426"
         sodipodi:cy="100.93361"
         sodipodi:rx="42.857143"
         sodipodi:ry="42.857143"
         d="m 131.42857,100.93361 c 0,23.66935 -19.1878,42.85714 -42.857144,42.85714 -23.669346,0 -42.857143,-19.18779 -42.857143,-42.85714 0,-23.669348 19.187797,-42.857144 42.857143,-42.857144 23.669344,0 42.857144,19.187796 42.857144,42.857144 z"
         transform="matrix(0.19626985,0,0,0.19626985,6.9264664,9.7944206)" />
      <path
         sodipodi:type="arc"
         style="fill:none;stroke:#000000;stroke-width:0.09;stroke-linecap:butt;stroke-linejoin:miter;stroke-miterlimit:4;stroke-opacity:1;stroke-dasharray:none;stroke-dashoffset:0"
         id="path3793"
         sodipodi:cx="52.564457"
         sodipodi:cy="60.626156"
         sodipodi:rx="12.909613"
         sodipodi:ry="12.909613"
         d="m 65.47407,60.626156 c 0,7.129782 -5.779831,12.909613 -12.909613,12.909613 -7.129782,0 -12.909613,-5.779831 -12.909613,-12.909613 0,-7.129782 5.779831,-12.909613 12.909613,-12.909613 7.129782,0 12.909613,5.779831 12.909613,12.909613 z"
         transform="translate(-28.25409,-31.021511)" />
    </g>
    <g
       id="g3795"
       style="fill:none;stroke:#000000;stroke-width:0.09;stroke-miterlimit:4;stroke-opacity:1;stroke-dasharray:none"
       transform="translate(-6,-18)">
      <path
         transform="matrix(0.19626985,0,0,0.19626985,6.9264664,9.7944206)"
         d="m 131.42857,100.93361 c 0,23.66935 -19.1878,42.85714 -42.857144,42.85714 -23.669346,0 -42.857143,-19.18779 -42.857143,-42.85714 0,-23.669348 19.187797,-42.857144 42.857143,-42.857144 23.669344,0 42.857144,19.187796 42.857144,42.857144 z"
         sodipodi:ry="42.857143"
         sodipodi:rx="42.857143"
         sodipodi:cy="100.93361"
         sodipodi:cx="88.571426"
         id="path3797"
         style="fill:none;stroke:#000000;stroke-width:0.45855236;stroke-linecap:butt;stroke-linejoin:miter;stroke-miterlimit:4;stroke-opacity:1;stroke-dasharray:none;stroke-dashoffset:0"
         sodipodi:type="arc" />
      <path
         transform="translate(-28.25409,-31.021511)"
         d="m 65.47407,60.626156 c 0,7.129782 -5.779831,12.909613 -12.909613,12.909613 -7.129782,0 -12.909613,-5.779831 -12.909613,-12.909613 0,-7.129782 5.779831,-12.909613 12.909613,-12.909613 7.129782,0 12.909613,5.779831 12.909613,12.909613 z"
         sodipodi:ry="12.909613"
         sodipodi:rx="12.909613"
         sodipodi:cy="60.626156"
         sodipodi:cx="52.564457"
         id="path3799"
         style="fill:none;stroke:#000000;stroke-width:0.09;stroke-linecap:butt;stroke-linejoin:miter;stroke-miterlimit:4;stroke-opacity:1;stroke-dasharray:none;stroke-dashoffset:0"
         sodipodi:type="arc" />
    </g>
    <g
       transform="translate(24,-18)"
       style="fill:none;stroke:#000000;stroke-width:0.09;stroke-miterlimit:4;stroke-opacity:1;stroke-dasharray:none"
       id="g3801">
      <path
         sodipodi:type="arc"
         style="fill:none;stroke:#000000;stroke-width:0.45855236;stroke-linecap:butt;stroke-linejoin:miter;stroke-miterlimit:4;stroke-opacity:1;stroke-dasharray:none;stroke-dashoffset:0"
         id="path3803"
         sodipodi:cx="88.571426"
         sodipodi:cy="100.93361"
         sodipodi:rx="42.857143"
         sodipodi:ry="42.857143"
         d="m 131.42857,100.93361 c 0,23.66935 -19.1878,42.85714 -42.857144,42.85714 -23.669346,0 -42.857143,-19.18779 -42.857143,-42.85714 0,-23.669348 19.187797,-42.857144 42.857143,-42.857144 23.669344,0 42.857144,19.187796 42.857144,42.857144 z"
         transform="matrix(0.19626985,0,0,0.19626985,6.9264664,9.7944206)" />
      <path
         sodipodi:type="arc"
         style="fill:none;stroke:#000000;stroke-width:0.09;stroke-linecap:butt;stroke-linejoin:miter;stroke-miterlimit:4;stroke-opacity:1;stroke-dasharray:none;stroke-dashoffset:0"
         id="path3805"
         sodipodi:cx="52.564457"
         sodipodi:cy="60.626156"
         sodipodi:rx="12.909613"
         sodipodi:ry="12.909613"
         d="m 65.47407,60.626156 c 0,7.129782 -5.779831,12.909613 -12.909613,12.909613 -7.129782,0 -12.909613,-5.779831 -12.909613,-12.909613 0,-7.129782 5.779831,-12.909613 12.909613,-12.909613 7.129782,0 12.909613,5.779831 12.909613,12.909613 z"
         transform="translate(-28.25409,-31.021511)" />
    </g>
  </g>
</svg>
