<?xml version="1.0" encoding="UTF-8" standalone="no"?>
<!-- Created with Inkscape (http://www.inkscape.org/) -->

<svg
   xmlns:dc="http://purl.org/dc/elements/1.1/"
   xmlns:cc="http://creativecommons.org/ns#"
   xmlns:rdf="http://www.w3.org/1999/02/22-rdf-syntax-ns#"
   xmlns:svg="http://www.w3.org/2000/svg"
   xmlns="http://www.w3.org/2000/svg"
   xmlns:sodipodi="http://sodipodi.sourceforge.net/DTD/sodipodi-0.dtd"
   xmlns:inkscape="http://www.inkscape.org/namespaces/inkscape"
   id="svg3763"
   version="1.1"
   inkscape:version="0.48.1 r9760"
   width="990"
   height="765"
   xml:space="preserve"
   sodipodi:docname="iris-cut-pattern-bottom.svg"><metadata
     id="metadata3769"><rdf:RDF><cc:Work
         rdf:about=""><dc:format>image/svg+xml</dc:format><dc:type
           rdf:resource="http://purl.org/dc/dcmitype/StillImage" /><dc:title></dc:title></cc:Work></rdf:RDF></metadata><defs
     id="defs3767"><clipPath
       clipPathUnits="userSpaceOnUse"
       id="clipPath3779"><path
         d="m 0,0 6325,0 0,9680 L 0,9680 0,0"
         id="path3781"
         inkscape:connector-curvature="0" /></clipPath><clipPath
       id="clipPath3020"
       clipPathUnits="userSpaceOnUse"><path
         inkscape:connector-curvature="0"
         id="path3022"
         d="m 0,0 6325,0 0,9677 L 0,9677 0,0" /></clipPath></defs><sodipodi:namedview
     pagecolor="#ffffff"
     bordercolor="#666666"
     borderopacity="1"
     objecttolerance="10"
     gridtolerance="10"
     guidetolerance="10"
     inkscape:pageopacity="0"
     inkscape:pageshadow="2"
     inkscape:window-width="1680"
     inkscape:window-height="1006"
     id="namedview3765"
     showgrid="false"
     inkscape:document-units="in"
     inkscape:zoom="0.86797386"
     inkscape:cx="298.56551"
     inkscape:cy="382.5"
     inkscape:window-x="0"
     inkscape:window-y="0"
     inkscape:window-maximized="0"
     inkscape:current-layer="g3771" /><g
     id="g3771"
     inkscape:groupmode="layer"
     inkscape:label="iris-cut-pattern"
     transform="matrix(0,-1.25,-1.25,0,1530,765)"><g
       id="g3773"
       transform="matrix(-0.10331272,0.02558683,-0.02572585,-0.10222807,763.43728,1250.5037)"><g
         id="g3775"><g
           id="g3777"
           clip-path="url(#clipPath3779)"><path
             d="m 3020,2384.5 c 0,33.4133 -27.0867,60.5 -60.5,60.5 -33.4133,0 -60.5,-27.0867 -60.5,-60.5 0,-33.4133 27.0867,-60.5 60.5,-60.5 33.4133,0 60.5,27.0867 60.5,60.5"
             style="fill:none;stroke:#000000;stroke-width:9.06317711;stroke-linecap:round;stroke-linejoin:round;stroke-miterlimit:10;stroke-opacity:1;stroke-dasharray:none"
             id="path3783"
             inkscape:connector-curvature="0" /><path
             d="m 746,4337.5 c 0,33.4131 -27.08679,60.5 -60.5,60.5 -33.41321,0 -60.5,-27.0869 -60.5,-60.5 0,-33.4131 27.08679,-60.5 60.5,-60.5 33.41321,0 60.5,27.0869 60.5,60.5"
             style="fill:none;stroke:#000000;stroke-width:9.06317711;stroke-linecap:round;stroke-linejoin:round;stroke-miterlimit:10;stroke-opacity:1;stroke-dasharray:none"
             id="path3785"
             inkscape:connector-curvature="0" /><path
             d="m 1901,7103.5 c 0,33.4131 -27.0868,60.5 -60.5,60.5 -33.4132,0 -60.5,-27.0869 -60.5,-60.5 0,-33.4131 27.0868,-60.5 60.5,-60.5 33.4132,0 60.5,27.0869 60.5,60.5"
             style="fill:none;stroke:#000000;stroke-width:9.06317711;stroke-linecap:round;stroke-linejoin:round;stroke-miterlimit:10;stroke-opacity:1;stroke-dasharray:none"
             id="path3787"
             inkscape:connector-curvature="0" /><path
             d="m 4889,6859.5 c 0,33.4131 -27.0869,60.5 -60.5,60.5 -33.4131,0 -60.5,-27.0869 -60.5,-60.5 0,-33.4131 27.0869,-60.5 60.5,-60.5 33.4131,0 60.5,27.0869 60.5,60.5"
             style="fill:none;stroke:#000000;stroke-width:9.06317711;stroke-linecap:round;stroke-linejoin:round;stroke-miterlimit:10;stroke-opacity:1;stroke-dasharray:none"
             id="path3789"
             inkscape:connector-curvature="0" /><path
             d="m 5580,3942.5 c 0,33.4133 -27.0869,60.5 -60.5,60.5 -33.4131,0 -60.5,-27.0867 -60.5,-60.5 0,-33.4133 27.0869,-60.5 60.5,-60.5 33.4131,0 60.5,27.0867 60.5,60.5"
             style="fill:none;stroke:#000000;stroke-width:9.06317711;stroke-linecap:round;stroke-linejoin:round;stroke-miterlimit:10;stroke-opacity:1;stroke-dasharray:none"
             id="path3791"
             inkscape:connector-curvature="0" /><path
             d="m 4141,4925.5 c 0,538.7539 -436.2986,975.5 -974.5,975.5 -538.2014,0 -974.5,-436.7461 -974.5,-975.5 0,-538.7539 436.2986,-975.5 974.5,-975.5 538.2014,0 974.5,436.7461 974.5,975.5"
             style="fill:none;stroke:#000000;stroke-width:9.06317711;stroke-linecap:round;stroke-linejoin:round;stroke-miterlimit:10;stroke-opacity:1;stroke-dasharray:none"
             id="path3793"
             inkscape:connector-curvature="0" /><path
             d="m 2603,5950.5 c 0,33.4131 -27.0867,60.5 -60.5,60.5 -33.4133,0 -60.5,-27.0869 -60.5,-60.5 0,-33.4131 27.0867,-60.5 60.5,-60.5 33.4133,0 60.5,27.0869 60.5,60.5"
             style="fill:none;stroke:#000000;stroke-width:9.06317711;stroke-linecap:round;stroke-linejoin:round;stroke-miterlimit:10;stroke-opacity:1;stroke-dasharray:none"
             id="path3795"
             inkscape:connector-curvature="0" /><path
             d="m 4009,5835.5 c 0,33.4131 -27.0867,60.5 -60.5,60.5 -33.4133,0 -60.5,-27.0869 -60.5,-60.5 0,-33.4131 27.0867,-60.5 60.5,-60.5 33.4133,0 60.5,27.0869 60.5,60.5"
             style="fill:none;stroke:#000000;stroke-width:9.06317711;stroke-linecap:round;stroke-linejoin:round;stroke-miterlimit:10;stroke-opacity:1;stroke-dasharray:none"
             id="path3797"
             inkscape:connector-curvature="0" /><path
             d="m 4335,4463.5 c 0,33.4131 -27.0869,60.5 -60.5,60.5 -33.4131,0 -60.5,-27.0869 -60.5,-60.5 0,-33.4131 27.0869,-60.5 60.5,-60.5 33.4131,0 60.5,27.0869 60.5,60.5"
             style="fill:none;stroke:#000000;stroke-width:9.06317711;stroke-linecap:round;stroke-linejoin:round;stroke-miterlimit:10;stroke-opacity:1;stroke-dasharray:none"
             id="path3799"
             inkscape:connector-curvature="0" /><path
             d="m 3130,3729.5 c 0,33.4133 -27.0867,60.5 -60.5,60.5 -33.4133,0 -60.5,-27.0867 -60.5,-60.5 0,-33.4133 27.0867,-60.5 60.5,-60.5 33.4133,0 60.5,27.0867 60.5,60.5"
             style="fill:none;stroke:#000000;stroke-width:9.06317711;stroke-linecap:round;stroke-linejoin:round;stroke-miterlimit:10;stroke-opacity:1;stroke-dasharray:none"
             id="path3801"
             inkscape:connector-curvature="0" /><path
             d="m 2060,4649.5 c 0,33.4131 -27.0868,60.5 -60.5,60.5 -33.4132,0 -60.5,-27.0869 -60.5,-60.5 0,-33.4131 27.0868,-60.5 60.5,-60.5 33.4132,0 60.5,27.0869 60.5,60.5"
             style="fill:none;stroke:#000000;stroke-width:9.06317711;stroke-linecap:round;stroke-linejoin:round;stroke-miterlimit:10;stroke-opacity:1;stroke-dasharray:none"
             id="path3803"
             inkscape:connector-curvature="0" /><path
             d="M 5941,4925.5 C 5941,6458.3662 4698.814,7701 3166.5,7701 1634.1859,7701 392,6458.3662 392,4925.5 392,3392.6335 1634.1859,2150 3166.5,2150 4698.814,2150 5941,3392.6335 5941,4925.5"
             style="fill:none;stroke:#000000;stroke-width:9.06317711;stroke-linecap:round;stroke-linejoin:round;stroke-miterlimit:10;stroke-opacity:1;stroke-dasharray:none"
             id="path3805"
             inkscape:connector-curvature="0" /></g></g></g></g></svg>